<!-- Generated by IcoMoon.io -->
<svg version="1.1" xmlns="http://www.w3.org/2000/svg" width="1024" height="1024" viewBox="0 0 1024 1024">
<title></title>
<g id="icomoon-ignore">
</g>
<path fill="#fff" d="M512 0c282.77 0 512 229.231 512 512s-229.231 512-512 512c-282.77 0-512-229.231-512-512s229.231-512 512-512zM554.667 255.999h-85.333v213.334h-213.334v85.329h213.334v213.337h85.333v-213.337h170.663l85.333-85.329h-255.996v-213.334z"></path>
<path fill="#237aba" d="M512 0c282.77 0 512 229.231 512 512s-229.231 512-512 512c-282.77 0-512-229.231-512-512s229.231-512 512-512zM554.667 255.999h-85.333v213.334h-213.334v85.329h213.334v213.337h85.333v-213.337h170.663l85.333-85.329h-255.996v-213.334z"></path>
</svg>
