<?xml version="1.0" encoding="UTF-8"?>
<svg width="24px" height="24px" viewBox="0 0 24 24" version="1.1" xmlns="http://www.w3.org/2000/svg" xmlns:xlink="http://www.w3.org/1999/xlink">
    <!-- Generator: sketchtool 61.2 (101010) - https://sketch.com -->
    <title>FEC2DE43-54CE-4F34-809C-724FFB7AC36C</title>
    <desc>Created with sketchtool.</desc>
    <g id="Asset-Artboard-Page" stroke="none" stroke-width="1" fill="none" fill-rule="evenodd">
        <g id="Communication-and-Multimedia/Alarm-Copy-Communication-and-Multimedia/Alarm" fill="#FFFFFF">
            <path d="M16.0808171,17.4515255 L20.1456891,13.3591924 C21.4378848,12.0582894 22.1587494,10.3441886 22.175389,8.53259556 C22.1883434,7.1228094 21.7711242,5.77690138 20.986493,4.63915571 L23,2.61202972 L21.3989101,1 L19.4055047,3.00691279 C18.2502229,2.15717714 16.8672351,1.71025348 15.4185821,1.7343753 C13.6381416,1.7639692 11.9450312,2.49767445 10.6511603,3.80047589 C10.3599109,4.09339961 7.25220858,7.22220022 6.58997361,7.88878875 L1.32749488,9.29444293 C0.970468707,9.38981345 0.893412698,9.6786052 1.1555148,9.93958985 L5.11451855,13.8819434 C5.09307687,13.9023799 5.07130017,13.9221464 5.05041688,13.943253 C3.71455604,15.2881559 3.71455604,17.4763174 5.05041688,18.8212203 C6.38616605,20.1660116 8.55959221,20.1660116 9.89545305,18.8212203 C9.91633635,18.8001137 9.93610289,18.7781138 9.95653948,18.7566721 L13.9668022,22.8424165 C14.2257774,23.106193 14.5165801,23.0310357 14.6164179,22.6752389 L16.0808171,17.4515255 Z M5.58344345,11.1319446 L7.79528594,10.6961885 L13.3984862,16.3372316 L12.7878453,18.3849058 L5.58344345,11.1319446 Z" id="-🎨-Change-color-here"></path>
        </g>
    </g>
</svg>