<?xml version="1.0" encoding="UTF-8"?>
<svg width="22px" height="21px" viewBox="0 0 22 21" version="1.1" xmlns="http://www.w3.org/2000/svg" xmlns:xlink="http://www.w3.org/1999/xlink">
    <!-- Generator: Sketch 63.1 (92452) - https://sketch.com -->
    <title>Communication and Multimedia/Warning</title>
    <desc>Created with Sketch.</desc>
    <g id="PROVEEDORES" stroke="none" stroke-width="1" fill="none" fill-rule="evenodd">
        <g id="CALENDAR" transform="translate(-1309.000000, -703.000000)" fill="#C65302">
            <g id="Communication-and-Multimedia/Warning" transform="translate(1308.000000, 702.000000)">
                <path d="M1.1190829,21.0311918 L11.438502,1.40164015 C11.7278784,0.902187412 12.1849211,0.868207272 12.497069,1.30161295 L12.5616261,1.40164015 L22.8810452,21.0311918 C23.1729496,21.5348417 22.9092233,21.9486278 22.2912817,21.9955658 L22.1713159,22 L1.82870988,22 C1.16795233,22 0.847190025,21.616458 1.07073895,21.1246145 L11.438502,1.40164015 L1.1190829,21.0311918 Z M12.0000024,17 C11.2406118,17 10.6250041,17.6156077 10.6250041,18.3749984 C10.6250041,19.134389 11.2406118,19.7499967 12.0000024,19.7499967 C12.7593931,19.7499967 13.3750008,19.134389 13.3750008,18.3749984 C13.3750008,17.6156077 12.7593931,17 12.0000024,17 Z M11,8 L11,15 L13,15 L13,9.75 L11,8 Z" id="-🎨-Change-color-here"></path>
            </g>
        </g>
    </g>
</svg>