<?xml version="1.0" encoding="UTF-8"?>
<svg width="15px" height="22px" viewBox="0 0 15 22" version="1.1" xmlns="http://www.w3.org/2000/svg" xmlns:xlink="http://www.w3.org/1999/xlink">
    <!-- Generator: sketchtool 63.1 (101010) - https://sketch.com -->
    <title>6A6096DF-7FED-41C5-A906-8799F373F263</title>
    <desc>Created with sketchtool.</desc>
    <g id="DIFERIDOS-_-nuevo" stroke="none" stroke-width="1" fill="none" fill-rule="evenodd">
        <g id="4#-ÓRDENES-REMESA---DIFERIDO-adjuntar" transform="translate(-389.000000, -686.000000)" fill="#1973B8">
            <g id="MODAL" transform="translate(344.000000, 230.000000)">
                <g id="Adjuntar-anexo" transform="translate(40.000000, 295.000000)">
                    <g id="💎-icon-Attached" transform="translate(5.801105, 161.000000)">
                        <path d="M13.3420083,17.7953417 L11.1073583,15.5606917 C10.89075,17.6337333 9.13285833,19.25 7.005,19.25 C4.72680833,19.25 2.88,17.4053 2.88,15.1289417 L2.88,11 L0.13,8.25 L0.13,15.1295833 C0.13,18.9178917 3.208075,22 7.005,22 C9.85015,22 12.2985667,20.2657583 13.3420083,17.7953417 L13.3420083,17.7953417 Z M7.005,2.75 C9.28319167,2.75 11.13,4.5947 11.13,6.87105833 L11.13,11.9166667 L13.88,14.6666667 L13.88,6.87041667 C13.88,3.08210833 10.8020167,0 7.005,0 C3.907675,0 1.281425,2.05571667 0.425166667,4.8785 L2.88,7.33333333 L2.88,6.87105833 C2.88,4.59506667 4.73148333,2.75 7.005,2.75 L7.005,2.75 Z M5.63,5.5 L5.63,13.75 L8.38,16.5 L8.38,8.25 L5.63,5.5 Z" id="icon-attached"></path>
                    </g>
                </g>
            </g>
        </g>
    </g>
</svg>