<?xml version="1.0" encoding="UTF-8"?>
<svg width="232px" height="43px" viewBox="0 0 232 43" version="1.1" xmlns="http://www.w3.org/2000/svg" xmlns:xlink="http://www.w3.org/1999/xlink">
    <!-- Generator: Sketch 62 (91390) - https://sketch.com -->
    <title>GLOBAL SOLUTIONS@1x</title>
    <desc>Created with Sketch.</desc>
    <g id="Symbols" stroke="none" stroke-width="1" fill="none" fill-rule="evenodd">
        <g id="ðŸ‘‰ðŸ¼Comp-/-HEADER-ONE-BANK-/-Normal" transform="translate(-228.000000, -15.000000)" fill="#FFFFFF">
            <g id="HEADER">
                <g id="GLOBAL-SOLUTIONS@1x" transform="translate(228.000000, 15.000000)">
                    <text id="Global-Supply-Chain" font-family="BentonSansBBVA-Light, Benton Sans BBVA" font-size="13" font-weight="300">
                        <tspan x="66" y="40">Global Supply Chain Finance</tspan>
                    </text>
                    <path d="M66.2640319,3.64321323 C66.3468796,3.49943235 66.5011638,3.40931172 66.66965,3.40627335 L70.5074217,3.40627335 C70.6289103,3.40537557 70.7418361,3.46746673 70.8043432,3.56954256 C70.8668504,3.67161839 70.8696237,3.79846701 70.8116353,3.90307202 L58.331077,26.7630028 C58.2469285,26.8946241 58.0995722,26.9745514 57.9410595,26.9745514 C57.7825469,26.9745514 57.6351906,26.8946241 57.5510421,26.7630028 L45.0704837,3.90307202 C45.0124953,3.79846701 45.0152687,3.67161839 45.0777759,3.56954256 C45.140283,3.46746673 45.2532088,3.40537557 45.3746973,3.40627335 L49.1968683,3.40627335 C49.3662745,3.40627335 49.5220904,3.49710909 49.6024865,3.64321323 L57.5198407,18.401664 C57.6033454,18.5510383 57.7633363,18.6439102 57.9371594,18.6439102 C58.1109825,18.6439102 58.2709733,18.5510383 58.354478,18.401664 L66.2640319,3.64321323 Z M70.7570329,23.3313381 C70.6766368,23.4774423 70.5208209,23.5684576 70.3514148,23.5682682 L66.5214434,23.5682682 C66.4022574,23.5677596 66.291874,23.5067021 66.2298525,23.4069777 C66.1678311,23.3072533 66.1630527,23.1831417 66.2172298,23.0791223 L78.6977882,0.2115486 C78.7819367,0.0799272315 78.929293,-1.24344979e-14 79.0878056,-1.24344979e-14 C79.2463183,-1.24344979e-14 79.3936745,0.0799272315 79.4778231,0.2115486 L91.9583814,23.0791223 C92.0163698,23.1837273 92.0135964,23.3105759 91.9510893,23.4126517 C91.8885821,23.5147276 91.7756563,23.5768187 91.6541678,23.5759209 L87.8319968,23.5759209 C87.6613989,23.5729268 87.5059765,23.4792128 87.4263787,23.3313381 L79.5012241,8.58053027 C79.4200391,8.43062808 79.261002,8.33691053 79.0878056,8.33691053 C78.9146092,8.33691053 78.7555721,8.43062808 78.6743871,8.58053027 L70.7570329,23.3313381 Z M16.6850138,14.2897808 C16.6850138,14.2897808 20.4681831,15.2375011 20.4681831,19.9226022 C20.4681831,24.6077034 17.472849,26.9999329 11.794195,26.9999329 L0.45248758,26.9999329 C0.331134465,26.9999329 0.214861514,26.9521994 0.129788426,26.8674062 C0.0447153372,26.7826131 -0.00202495746,26.6678875 5.86197757e-14,26.5490014 L5.86197757e-14,3.85721459 C-0.00202495746,3.73832856 0.0447153372,3.62360292 0.129788426,3.53880978 C0.214861514,3.45401665 0.331134465,3.40628316 0.45248758,3.40628316 L12.3480198,3.40628316 C16.443203,3.40628316 19.3683338,5.89787039 19.3683338,9.574108 C19.4741903,11.520884 18.4308064,13.3545293 16.6850138,14.2897808 Z M4.43846591,6.81501907 L4.43846591,6.83030488 C4.18604187,6.8343938 3.98241847,7.03390724 3.97824532,7.28123631 L3.97824532,12.5166267 C3.98241847,12.7639557 4.18604187,12.9634692 4.43846591,12.9675581 L11.45878,12.9675581 C14.0406955,12.9675581 15.3589545,11.92048 15.3589545,9.91039585 C15.3589545,7.90031167 14.0484958,6.81501907 11.45878,6.81501907 L4.43846591,6.81501907 Z M11.5679849,23.5912629 C15.0001384,23.5912629 16.4900051,22.6587625 16.4900051,20.0143171 C16.4900051,17.3698718 14.968937,16.4297272 11.5679849,16.4297272 L4.43846591,16.4297272 C4.31576594,16.427703 4.19746281,16.4745399 4.1106877,16.5595635 C4.0239126,16.6445871 3.97611092,16.7605024 3.97817679,16.8807258 L3.97817679,23.1479084 C3.97817679,23.2668121 4.02696212,23.3807382 4.11350199,23.4640942 C4.20004185,23.5474501 4.31713083,23.593247 4.43846591,23.5912629 L11.5679849,23.5912629 Z M41.0221026,14.2897808 C41.0221026,14.2897808 44.7974715,15.2375011 44.7974715,19.9226022 C44.7974715,24.6077034 41.8021375,27 36.1312838,27 L24.7895764,27 C24.6668764,27.0020242 24.5485733,26.9551873 24.4617982,26.8701637 C24.3750231,26.7851401 24.3272214,26.6692248 24.3292873,26.5490014 L24.3292873,3.85721459 C24.3272214,3.73699121 24.3750231,3.62107593 24.4617982,3.53605231 C24.5485733,3.45102868 24.6668764,3.40419184 24.7895764,3.40621601 L36.6851086,3.40621601 C40.7802918,3.40621601 43.7054227,5.89787039 43.7054227,9.574108 C43.8074638,11.520016 42.7651357,13.3518057 41.0221026,14.2897808 Z M28.7755547,6.81501907 L28.7755547,6.83030488 C28.5213819,6.83030488 28.3153341,7.03219376 28.3153341,7.28123631 L28.3153341,12.5166267 C28.3153341,12.7656692 28.5213819,12.9675581 28.7755547,12.9675581 L35.7958688,12.9675581 C38.3777843,12.9675581 39.6960433,11.92048 39.6960433,9.91039585 C39.6960433,7.90031167 38.393385,6.81501907 35.7958688,6.81501907 L28.7755547,6.81501907 Z M35.9050737,23.5911969 C39.3372272,23.5911969 40.8192935,22.6587625 40.8192935,20.0143171 C40.8192935,17.3698718 39.2982255,16.4297944 35.9050737,16.4297944 L28.7677544,16.4297944 C28.5135816,16.4297944 28.3075338,16.6316832 28.3075338,16.8807258 L28.3075338,23.1479084 C28.3117907,23.3939612 28.5165969,23.5911969 28.7677544,23.5911969 L35.9050737,23.5911969 Z" id="Combined-Shape" fill-rule="nonzero"></path>
                </g>
            </g>
        </g>
    </g>
</svg>