<?xml version="1.0" encoding="UTF-8"?>
<svg width="112px" height="112px" viewBox="0 0 112 112" version="1.1" xmlns="http://www.w3.org/2000/svg" xmlns:xlink="http://www.w3.org/1999/xlink">
    <title>D278DF8D-84EC-4480-9E66-3BB8EC5E8F4B</title>
    <defs>
        <linearGradient x1="24.0093332%" y1="-1.76185486%" x2="68.1628964%" y2="107.264142%" id="linearGradient-1">
            <stop stop-color="#192647" stop-opacity="0.5" offset="0%"></stop>
            <stop stop-color="#192647" stop-opacity="0" offset="100%"></stop>
        </linearGradient>
        <linearGradient x1="100.000542%" y1="50.0002559%" x2="0.000421915496%" y2="50.0002559%" id="linearGradient-2">
            <stop stop-color="#043263" stop-opacity="0.1" offset="0%"></stop>
            <stop stop-color="#043263" stop-opacity="0" offset="100%"></stop>
        </linearGradient>
        <linearGradient x1="26.5229514%" y1="5.84420898%" x2="73.477826%" y2="94.1565274%" id="linearGradient-3">
            <stop stop-color="#1C2645" stop-opacity="0.5" offset="0%"></stop>
            <stop stop-color="#1C2645" stop-opacity="0" offset="100%"></stop>
        </linearGradient>
    </defs>
    <g id="1)-MONITOR" stroke="none" stroke-width="1" fill="none" fill-rule="evenodd">
        <g id="HOME---cancelar-confirmación" transform="translate(-664.000000, -684.000000)">
            <g id="MODAL" transform="translate(444.000000, 592.000000)">
                <g id="Illustration" transform="translate(220.000000, 92.000000)">
                    <g id="Products-and-Services/Payroll">
                        <g id="Payroll">
                            <g id="Cuadrados_Blancos">
                                <rect id="Rectangle" x="0" y="0" width="112" height="112"></rect>
                            </g>
                            <g id="Capa_58" transform="translate(22.213333, 14.000000)" fill-rule="nonzero">
                                <g id="Group">
                                    <path d="M76.9794667,34.4288 L55.3522667,12.796 L12.8165333,12.796 C12.4152,12.7978667 12.0904,13.1226667 12.0884529,13.524 L12.0884529,97.3373333 C12.0829333,97.6976 12.3704,97.9925333 12.7288,98.0001431 C12.7362667,98.0001431 12.7418667,98.0001431 12.7493333,98.0001431 L76.3205333,98.0001431 C76.6808,98.0074667 76.9776,97.7218667 76.9850667,97.3616 C76.9850667,97.3541333 76.9850667,97.3466667 76.9850667,97.3392 L76.9794667,34.4288 Z" id="Path" fill="url(#linearGradient-1)"></path>
                                    <path d="M65.0645333,21.6328 L43.4373333,0 L0.9016,0 C0.500266667,0.00186666667 0.175466667,0.326666667 0.17351955,0.728 L0.17351955,84.5413333 C0.168,84.9016 0.455466667,85.1965333 0.813866667,85.2041431 C0.821333333,85.2041431 0.826933333,85.2041431 0.8344,85.2041431 L64.4056,85.2041431 C64.7658667,85.2114667 65.0626667,84.9258667 65.0701333,84.5656 C65.0701333,84.5581333 65.0701333,84.5506667 65.0701333,84.5432 L65.0645333,21.6328 Z" id="Path" fill="#CDEEFE"></path>
                                    <path d="M47.1912,3.97226667 L3.1304,85.204 L63.3024,85.4244098 L64.4056,85.4244098 C64.7658667,85.4317333 65.0626667,85.1461333 65.0701333,84.7858667 C65.0701333,84.7784 65.0701333,84.7709333 65.0701333,84.7634667 L65.0701333,21.8530667 L47.1912,3.97226667 Z" id="Path" fill="url(#linearGradient-2)"></path>
                                    <g opacity="0.35" transform="translate(7.653333, 8.960000)" fill="#49A5E6" id="Path">
                                        <path d="M22.9805333,2.29786667 L1.12746667,2.29786667 C0.517066667,2.268 0.0466666667,1.75093333 0.0765333333,1.14053333 C0.104533333,0.5712 0.558133333,0.1176 1.12746667,0.0896 L22.9805333,0.0896 C23.5909333,0.0597333333 24.108,0.530133333 24.1378667,1.14053333 C24.1677333,1.75093333 23.6973333,2.268 23.0869333,2.29786667 C23.0514667,2.29973333 23.016,2.29973333 22.9805333,2.29786667 Z"></path>
                                    </g>
                                    <g opacity="0.35" transform="translate(7.653333, 15.120000)" fill="#49A5E6" id="Path">
                                        <path d="M22.9805333,2.32213333 L1.12746667,2.32213333 C0.517066667,2.29226667 0.0466666667,1.7752 0.0765333333,1.1648 C0.104533333,0.595466667 0.558133333,0.141866667 1.12746667,0.113866667 L22.9805333,0.113866667 C23.5909333,0.084 24.108,0.5544 24.1378667,1.1648 C24.1677333,1.7752 23.6973333,2.29226667 23.0869333,2.32213333 C23.0514667,2.32213333 23.016,2.32213333 22.9805333,2.32213333 Z"></path>
                                    </g>
                                    <g opacity="0.35" transform="translate(7.466667, 72.613333)" fill="#49A5E6" id="Path">
                                        <path d="M16.2661333,2.21573333 L1.25626667,2.21573333 C0.647733333,2.21573333 0.153066667,1.72106667 0.153066667,1.11253333 C0.153066667,0.504 0.647733333,0.00933333333 1.25626667,0.00933333333 L1.25626667,0.00933333333 L16.2661333,0.00933333333 C16.8746667,0.00933333333 17.3693333,0.504 17.3693333,1.11253333 C17.3674667,1.72106667 16.8746667,2.21573333 16.2661333,2.21573333 Z"></path>
                                    </g>
                                    <path d="M44.2530667,21.6328 L65.0645333,21.6328 L43.4371505,0 L43.4371505,20.8133333 C43.428,21.2557333 43.7770667,21.6216 44.2194667,21.6309333 C44.2306667,21.6328 44.2418667,21.6328 44.2530667,21.6328 Z" id="Path" fill="#49A5E6"></path>
                                    <g opacity="0.35" transform="translate(7.653333, 31.733333)" fill="#49A5E6">
                                        <path d="M24.9685333,8.66133333 L7.5264,8.66133333 C6.916,8.63146667 6.4456,8.1144 6.47546667,7.504 C6.50346667,6.93466667 6.95706667,6.48106667 7.5264,6.45306667 L24.9685333,6.45306667 C25.5789333,6.48293333 26.0493333,7 26.0194667,7.6104 C25.9914667,8.17973333 25.5378667,8.63333333 24.9685333,8.66133333 Z" id="Path"></path>
                                        <path d="M24.9685333,14.8418667 L7.5264,14.8418667 C6.916,14.812 6.4456,14.2949333 6.47546667,13.6845333 C6.50346667,13.1152 6.95706667,12.6616 7.5264,12.6336 L24.9685333,12.6336 C25.5789333,12.6634667 26.0493333,13.1805333 26.0194667,13.7909333 C25.9914667,14.3602667 25.5378667,14.8157333 24.9685333,14.8418667 Z" id="Path"></path>
                                        <path d="M24.9685333,21.0224 L7.5264,21.0224 C6.91786667,21.0224 6.4232,20.5277333 6.4232,19.9192 C6.4232,19.3106667 6.91786667,18.816 7.5264,18.816 L7.5264,18.816 L24.9685333,18.816 C25.5770667,18.816 26.0717333,19.3106667 26.0717333,19.9192 C26.0717333,20.5277333 25.5770667,21.0224 24.9685333,21.0224 Z" id="Path"></path>
                                        <path d="M24.9685333,27.2029333 L7.5264,27.2029333 C6.916,27.1730667 6.4456,26.656 6.47546667,26.0456 C6.50346667,25.4762667 6.95706667,25.0226667 7.5264,24.9946667 L24.9685333,24.9946667 C25.5789333,25.0245333 26.0493333,25.5416 26.0194667,26.152 C25.9914667,26.7213333 25.5378667,27.1749333 24.9685333,27.2029333 Z" id="Path"></path>
                                        <path d="M46.6013333,0.0541333333 L1.12746667,0.0541333333 C0.524533333,0.0485333333 0.0298666667,0.533866667 0.0241813315,1.1368 C0.0241813315,1.14426667 0.0241813315,1.14986667 0.0241813315,1.15733333 L0.0241813315,32.06 C0.0168,32.6629333 0.500266667,33.1576 1.1032,33.1651146 C1.11066667,33.1651146 1.11813333,33.1651146 1.1256,33.1651146 L46.5994667,33.1651146 C47.2024,33.1706667 47.6970667,32.6853333 47.7027146,32.0824 C47.7027146,32.0749333 47.7027146,32.0674667 47.7027146,32.06 L47.7027146,1.15546667 C47.7082667,0.552533333 47.2229333,0.0578666667 46.62,0.0522666667 C46.6144,0.0541333333 46.6069333,0.0541333333 46.6013333,0.0541333333 Z M2.2288,2.25866667 L30.2661333,2.25866667 L30.2661333,30.9549333 L2.23253333,30.9549333 L2.2288,2.25866667 Z M45.4962667,30.9549333 L32.4744,30.9549333 L32.4744,2.25866667 L45.4962667,2.25866667 L45.4962667,30.9549333 Z" id="Shape"></path>
                                    </g>
                                </g>
                            </g>
                        </g>
                    </g>
                    <g id="Actions/Delete" transform="translate(56.000000, 10.000000)">
                        <g id="Delete">
                            <g id="Cuadrados_Blancos">
                                <rect id="Rectangle" x="0" y="0" width="37" height="37"></rect>
                            </g>
                            <g id="Capa_6" transform="translate(3.083333, 3.083333)" fill-rule="nonzero">
                                <g id="Group">
                                    <circle id="Oval" fill="url(#linearGradient-3)" cx="18.8434833" cy="18.8434833" r="15.0731833"></circle>
                                    <path d="M30.1482167,15.0664 C30.1482167,23.3938667 23.4025,30.14575 15.0818167,30.14575 C6.76113333,30.14575 0.00246666667,23.4068167 0.00246666667,15.0861333 C0.00246666667,6.76545 6.7414,0.00616666667 15.0627,-4.22462261e-06 C23.384,-0.00616666667 30.14205,6.73955 30.1482167,15.0664" id="Path" fill="#DA3951"></path>
                                    <path d="M20.4955333,18.7509833 L16.8171167,15.0725667 L20.4955333,11.39415 C20.9765333,10.9125333 20.9765333,10.13245 20.4949167,9.65145 C20.0133,9.17045 19.2332167,9.17045 18.7522167,9.65206667 L18.7522167,9.65206667 L15.0738,13.3304833 L11.3984667,9.65206667 C10.9174667,9.17045 10.1367667,9.17045 9.65576667,9.65145 C9.17415,10.13245 9.17415,10.91315 9.65515,11.39415 L9.65515,11.39415 L13.3341833,15.0725667 L9.65515,18.7516 C9.17415,19.2332167 9.17415,20.0133 9.65576667,20.4943 C10.1373833,20.9753 10.9174667,20.9753 11.3984667,20.4936833 L15.0768833,16.8152667 L18.7553,20.4936833 C19.2480167,20.9635833 20.0287167,20.9450833 20.4986167,20.4523667 C20.9531,19.9763 20.9531,19.22705 20.4986167,18.7503667 L20.4955333,18.7503667 L20.4955333,18.7509833 Z" id="Path" fill="#FFFFFF"></path>
                                </g>
                            </g>
                        </g>
                    </g>
                </g>
            </g>
        </g>
    </g>
</svg>