<?xml version="1.0" encoding="UTF-8"?>
<svg width="24px" height="24px" viewBox="0 0 24 24" version="1.1" xmlns="http://www.w3.org/2000/svg" xmlns:xlink="http://www.w3.org/1999/xlink">
    <!-- Generator: sketchtool 61.2 (101010) - https://sketch.com -->
    <title>4A5B7813-D82E-46AD-B5B4-D665EC3BB7C3</title>
    <desc>Created with sketchtool.</desc>
    <g id="Asset-Artboard-Page" stroke="none" stroke-width="1" fill="none" fill-rule="evenodd">
        <g id="Tools-and-Objects/Configuration" fill="#1973B8">
            <path d="M12.01,6.5 C13.5291,6.5 14.76,5.2691 14.76,3.75 C14.76,2.2309 13.5291,1 12.01,1 C10.4909,1 9.26,2.2309 9.26,3.75 C9.26,5.2691 10.4909,6.5 12.01,6.5 M12.01,9.25 C10.4909,9.25 9.26,10.4809 9.26,12 C9.26,13.5191 10.4909,14.75 12.01,14.75 C13.5291,14.75 14.76,13.5191 14.76,12 C14.76,10.4809 13.5291,9.25 12.01,9.25 M12.01,17.5 C10.4909,17.5 9.26,18.7309 9.26,20.25 C9.26,21.7691 10.4909,23 12.01,23 C13.5291,23 14.76,21.7691 14.76,20.25 C14.76,18.7309 13.5291,17.5 12.01,17.5" id="-🎨-Change-color-here"></path>
        </g>
    </g>
</svg>