<?xml version="1.0" encoding="UTF-8"?>
<svg width="24px" height="24px" viewBox="0 0 24 24" version="1.1" xmlns="http://www.w3.org/2000/svg" xmlns:xlink="http://www.w3.org/1999/xlink">
    <!-- Generator: sketchtool 61.2 (101010) - https://sketch.com -->
    <title>2B64B4C7-1F8C-4EEE-8BB5-DD6FAF6EBB02</title>
    <desc>Created with sketchtool.</desc>
    <g id="Asset-Artboard-Page" stroke="none" stroke-width="1" fill="none" fill-rule="evenodd">
        <g id="Communication-and-Multimedia/Globe" fill="#1973B8">
            <path d="M18.0966383,14.75 C18.3052717,13.8671583 18.4166467,12.9466417 18.4166467,12 C18.4166467,11.0533583 18.3052717,10.1328417 18.0966383,9.25 L20.743605,9.25 C21.0174133,10.118725 21.1666467,11.0420833 21.1666467,12 C21.1666467,12.9579167 21.0174133,13.881275 20.743605,14.75 L18.0966383,14.75 Z M14.516505,20.8154 C15.7983717,19.6490333 16.8246717,18.2071167 17.5023633,16.5833333 L19.9349217,16.5833333 C18.7565467,18.6154917 16.8211883,20.1565 14.516505,20.8154 L14.516505,20.8154 Z M12.9166467,19.778925 L12.9166467,16.5833333 L15.486705,16.5833333 C14.8655717,17.801125 13.9960217,18.8902167 12.9166467,19.778925 L12.9166467,19.778925 Z M12.9166467,9.25 L16.2010633,9.25 C16.4525967,10.1403583 16.5833133,11.066375 16.5833133,12 C16.5833133,12.944625 16.4529633,13.8682583 16.204455,14.75 L12.9166467,14.75 L12.9166467,9.25 Z M12.9166467,4.22281667 C13.872455,5.013075 14.6818717,5.97603333 15.2915467,7.05788333 C15.3581883,7.17604167 15.4213467,7.29603333 15.4829467,7.41666667 L12.9166467,7.41666667 L12.9166467,4.22281667 Z M19.9349217,7.41666667 L17.5023633,7.41666667 C16.8247633,5.792975 15.798555,4.35105833 14.51678,3.18469167 C16.8213717,3.84359167 18.7565467,5.3846 19.9349217,7.41666667 L19.9349217,7.41666667 Z M11.0833133,7.41666667 L8.513255,7.41666667 C9.134205,6.19869167 10.004305,5.10996667 11.0833133,4.22125833 L11.0833133,7.41666667 Z M11.0833133,14.75 L7.795505,14.75 C7.54699667,13.8682583 7.41664667,12.944625 7.41664667,12 C7.41664667,11.055375 7.54736333,10.131925 7.79578,9.25 L11.0833133,9.25 L11.0833133,14.75 Z M11.0833133,19.778925 C10.0041217,18.8903083 9.13438833,17.801125 8.51334667,16.5833333 L11.0833133,16.5833333 L11.0833133,19.778925 Z M4.06513,16.5833333 L6.49768833,16.5833333 C7.17528833,18.2071167 8.20168,19.6490333 9.483455,20.8154 C7.17877167,20.1565 5.24341333,18.6154 4.06513,16.5833333 L4.06513,16.5833333 Z M2.83331333,12 C2.83331333,11.0420833 2.98254667,10.118725 3.256355,9.25 L5.90332167,9.25 C5.69468833,10.1328417 5.58331333,11.0533583 5.58331333,12 C5.58331333,12.9466417 5.69468833,13.8671583 5.90332167,14.75 L3.256355,14.75 C2.98254667,13.881275 2.83331333,12.9579167 2.83331333,12 L2.83331333,12 Z M9.483455,3.1846 C8.20168,4.35096667 7.17528833,5.79288333 6.49768833,7.41666667 L4.06513,7.41666667 C5.24341333,5.38450833 7.17877167,3.8435 9.483455,3.1846 L9.483455,3.1846 Z M11.99998,1 C5.92486333,1 0.99998,5.92488333 0.99998,12 C0.99998,18.0751167 5.92486333,23 11.99998,23 C18.0751883,23 22.99998,18.0751167 22.99998,12 C22.99998,5.92488333 18.0751883,1 11.99998,1 L11.99998,1 Z" id="-🎨-Change-color-here"></path>
        </g>
    </g>
</svg>