<?xml version="1.0" encoding="UTF-8"?>
<svg width="6px" height="22px" viewBox="0 0 6 22" version="1.1" xmlns="http://www.w3.org/2000/svg" xmlns:xlink="http://www.w3.org/1999/xlink">
    <!-- Generator: sketchtool 63.1 (101010) - https://sketch.com -->
    <title>BC7375DE-3A99-4FD4-8587-CF26F004F578</title>
    <desc>Created with sketchtool.</desc>
    <g id="FICHEROS" stroke="none" stroke-width="1" fill="none" fill-rule="evenodd">
        <g id="BANCO---CLIENTE-TOOLTIP" transform="translate(-1261.000000, -525.000000)" fill="#1973B8">
            <g id="Group-2" transform="translate(148.000000, 452.000000)">
                <g id="1#-RESPUESTA" transform="translate(0.000000, 48.000000)">
                    <g id="ðŸ‘‰ðŸ¼Comp-/-Accordion-/-respuestas">
                        <g id="ðŸ‘‰ðŸ¼Comp-/-Accordion-/-salida-o2/-close">
                            <g id="ðŸ’Ž-More" transform="translate(1113.000000, 25.000000)">
                                <path d="M3.01,5.5 C4.5291,5.5 5.76,4.2691 5.76,2.75 C5.76,1.2309 4.5291,0 3.01,0 C1.4909,0 0.26,1.2309 0.26,2.75 C0.26,4.2691 1.4909,5.5 3.01,5.5 M3.01,8.25 C1.4909,8.25 0.26,9.4809 0.26,11 C0.26,12.5191 1.4909,13.75 3.01,13.75 C4.5291,13.75 5.76,12.5191 5.76,11 C5.76,9.4809 4.5291,8.25 3.01,8.25 M3.01,16.5 C1.4909,16.5 0.26,17.7309 0.26,19.25 C0.26,20.7691 1.4909,22 3.01,22 C4.5291,22 5.76,20.7691 5.76,19.25 C5.76,17.7309 4.5291,16.5 3.01,16.5" id="-ðŸŽ¨-Change-color-here"></path>
                            </g>
                        </g>
                    </g>
                </g>
            </g>
        </g>
    </g>
</svg>