<?xml version="1.0" encoding="UTF-8"?>
<svg width="24px" height="24px" viewBox="0 0 24 24" version="1.1" xmlns="http://www.w3.org/2000/svg" xmlns:xlink="http://www.w3.org/1999/xlink">
    <!-- Generator: sketchtool 61.2 (101010) - https://sketch.com -->
    <title>7233FDDA-C839-4588-9225-92455C050A00</title>
    <desc>Created with sketchtool.</desc>
    <defs>
        <path d="M4.52295929,14.2110973 L6.28443893,14.2110973 L6.28443893,12.4496177 L4.52295929,12.4496177 L4.52295929,14.2110973 Z M4.52295929,17.7340566 L6.28443893,17.7340566 L6.28443893,15.972577 L4.52295929,15.972577 L4.52295929,17.7340566 Z M3.64221946,5.40369911 L17.8221306,5.40369911 L16.0606509,7.16517875 L3.64221946,7.16517875 L3.64221946,5.40369911 Z M11.5688779,10.688138 L13.3303575,10.688138 L13.3303575,8.92665839 L11.5688779,8.92665839 L11.5688779,10.688138 Z M8.04591857,10.688138 L9.80739821,10.688138 L9.80739821,8.92665839 L8.04591857,8.92665839 L8.04591857,10.688138 Z M8.04591857,14.2110973 L9.80739821,14.2110973 L9.80739821,12.4496177 L8.04591857,12.4496177 L8.04591857,14.2110973 Z M8.04591857,17.7340566 L8.04591857,15.972577 L9.77701269,15.972577 C10.2659994,13.0912366 12.3514152,10.7532247 15.0918371,9.9015493 L15.0918371,8.92665839 L16.8533168,8.92665839 L16.8533168,9.57356179 C17.0291125,9.5616718 17.2064935,9.55497818 17.3852836,9.55497818 C18.4458705,9.55497818 19.4564314,9.76908603 20.3762761,10.1561712 L20.3762761,3.52384803 C20.3762761,3.05133112 20.069074,2.76147964 19.5814965,2.76147964 L17.7340566,2.76147964 L17.7340566,1 L15.972577,1 L15.972577,2.76147964 L5.40369911,2.76147964 L5.40369911,1 L3.64221946,1 L3.64221946,2.76147964 L1.97092758,2.76147964 C1.47507106,2.76147964 1,3.04137876 1,3.52384803 L1,19.391609 C1,19.8641259 1.48335001,20.3762761 1.97092758,20.3762761 L10.3173466,20.3762761 C9.95835702,19.5598303 9.73667481,18.6694023 9.68154049,17.7340566 L8.04591857,17.7340566 Z M16.7980944,13.3462372 L17.7522879,14.3003427 L17.7522879,16.6857384 L20.1375956,16.6857384 L19.1834901,17.6398439 L16.7980944,17.6398439 L16.7980944,13.3462372 Z M20.3248409,12.3187662 C19.441723,11.7616102 18.396461,11.4379383 17.2751912,11.4379383 C15.6492574,11.4379383 14.1829136,12.1169006 13.1407342,13.2054069 C12.8947436,13.4623187 12.6725329,13.7417775 12.4774491,14.0409648 C12.1240082,14.5831482 11.8602266,15.1885688 11.7063613,15.8370575 C11.6054286,16.2627191 11.5503823,16.7061716 11.5503823,17.1627471 C11.5503823,17.3212803 11.5585732,17.4777877 11.5711678,17.6330622 C11.6518435,18.6238945 11.9837944,19.5432988 12.5046639,20.3270691 C13.5301974,21.8700372 15.2835742,22.8875559 17.2751912,22.8875559 C20.436871,22.8875559 23,20.324515 23,17.1627471 C23,15.1224252 21.9316626,13.3325858 20.3248409,12.3187662 L20.3248409,12.3187662 Z" id="path-1"></path>
    </defs>
    <g id="Asset-Artboard-Page" stroke="none" stroke-width="1" fill="none" fill-rule="evenodd">
        <g id="Navigation/Settings-1-Actions/Previous-Appointment">
            <polygon id="Bounding-Box" points="0 0 24 0 24 24 0 24"></polygon>
            <mask id="mask-2" fill="white">
                <use xlink:href="#path-1"></use>
            </mask>
            <use id="Mask" fill="#FFFFFF" xlink:href="#path-1"></use>
            <g id="🎨-Color-Fill-Primary/Medium-Blue/Medium-Blue" mask="url(#mask-2)" fill="#1973B8">
                <rect id="Rectangle" x="0" y="0" width="24" height="24"></rect>
            </g>
        </g>
    </g>
</svg>