<?xml version="1.0" encoding="UTF-8"?>
<svg width="24px" height="24px" viewBox="0 0 24 24" version="1.1" xmlns="http://www.w3.org/2000/svg" xmlns:xlink="http://www.w3.org/1999/xlink">
    <!-- Generator: sketchtool 61.2 (101010) - https://sketch.com -->
    <title>E13CE05B-5B09-44AC-B874-891AD01CB954</title>
    <desc>Created with sketchtool.</desc>
    <g id="Asset-Artboard-Page" stroke="none" stroke-width="1" fill="none" fill-rule="evenodd">
        <g id="Tools-and-Objects/Settings" fill="#1973B8">
            <path d="M11.9999771,16.5454545 C9.46869375,16.5454545 7.41664375,14.5103636 7.41664375,12 C7.41664375,9.48963636 9.46869375,7.45454545 11.9999771,7.45454545 C14.5312604,7.45454545 16.5833104,9.48963636 16.5833104,12 C16.5833104,14.5103636 14.5312604,16.5454545 11.9999771,16.5454545 M22.8656854,11.4776364 L17.8126521,2.56854545 C17.6199688,2.218 17.2495438,2 16.8469438,2 L7.15301042,2 C6.75041042,2 6.37998542,2.218 6.18730208,2.56854545 L1.13426875,11.4776364 C0.95524375,11.8032727 0.95524375,12.1967273 1.13426875,12.5223636 L6.18730208,21.4314545 C6.37998542,21.782 6.75041042,22 7.15301042,22 L16.8469438,22 C17.2495438,22 17.6199688,21.782 17.8126521,21.4314545 L22.8656854,12.5223636 C23.0447104,12.1967273 23.0447104,11.8032727 22.8656854,11.4776364" id="-🎨-Change-color-here"></path>
        </g>
    </g>
</svg>