<?xml version="1.0" encoding="UTF-8"?>
<svg width="24px" height="24px" viewBox="0 0 24 24" version="1.1" xmlns="http://www.w3.org/2000/svg" xmlns:xlink="http://www.w3.org/1999/xlink">
    <!-- Generator: sketchtool 61.2 (101010) - https://sketch.com -->
    <title>22C4CA6C-F1B0-44A2-9331-6B70B4C4462C</title>
    <desc>Created with sketchtool.</desc>
    <g id="Asset-Artboard-Page" stroke="none" stroke-width="1" fill="none" fill-rule="evenodd">
        <g id="Security-and-Navigation/Show" fill="#1973B8">
            <path d="M12,3.75 C20.25,3.75 23,12 23,12 L22.8657227,12.3544922 C22.2265625,13.9335938 19.21875,20.25 12,20.25 C3.75,20.25 1,12 1,12 L1.0747757,11.7960663 C1.56396484,10.5256348 4.5234375,3.75 12,3.75 Z M12,6.5 C8.96244444,6.5 6.5,8.96238635 6.5,12 C6.5,15.0375013 8.96244444,17.5 12,17.5 C15.0375556,17.5 17.5,15.0375013 17.5,12 C17.5,8.96238635 15.0375556,6.5 12,6.5 Z M12.0091619,8.33358783 L12,12.0002545 L14.5713112,9.38682399 C15.2472555,10.0519521 15.6666667,10.9767945 15.6666667,12 C15.6666667,14.0250333 14.0250333,15.6666667 12,15.6666667 C9.97496674,15.6666667 8.33333333,14.0250333 8.33333333,12 C8.33333333,10.0402904 9.87076316,8.43964413 11.8135717,8.33864652 L12.0091619,8.33358783 Z" id="-🎨-Change-color-here"></path>
        </g>
    </g>
</svg>