<?xml version="1.0" encoding="UTF-8"?>
<svg width="20px" height="20px" viewBox="0 0 20 20" version="1.1" xmlns="http://www.w3.org/2000/svg" xmlns:xlink="http://www.w3.org/1999/xlink">
    <title>B4F71AAB-4850-4D57-877C-6E1899182DED</title>
    <defs>
        <path d="M13.4244619,14.5747067 L16.8355433,11.140581 C17.9199034,10.0489142 18.5248247,8.61050796 18.538788,7.09028998 C18.5496588,5.90725264 18.1995448,4.77781934 17.541113,3.82306773 L19.2307692,2.12198299 L17.8871973,0.769230769 L16.2144095,2.45335339 C15.2449423,1.74028851 14.0843931,1.36524768 12.8687402,1.38548976 C11.3746643,1.4103238 9.95387235,2.02602051 8.86810656,3.11928046 C8.62370149,3.36509058 6.01583937,5.99065753 5.46011771,6.55003252 L1.04405165,7.72960246 C0.744449265,7.80963366 0.679786879,8.05197639 0.899732703,8.27098449 L4.2219736,11.5792532 C4.20398059,11.5964027 4.18570644,11.61299 4.168182,11.6307018 C3.04717989,12.7592917 3.04717989,14.5955111 4.168182,15.724101 C5.28909039,16.8525971 7.11294451,16.8525971 8.23394662,15.724101 C8.25147106,15.7063892 8.26805837,15.6879276 8.28520796,15.6699347 L11.6504634,19.0985313 C11.8677852,19.3198822 12.1118155,19.2568132 12.1955954,18.9582424 L13.4244619,14.5747067 Z M4.61547702,9.27156193 L6.47156862,8.90589244 L11.1735549,13.6396349 L10.6611289,15.3579629 L4.61547702,9.27156193 Z" id="path-1"></path>
    </defs>
    <g id="MONITOR" stroke="none" stroke-width="1" fill="none" fill-rule="evenodd">
        <g id="ALERTAS-" transform="translate(-1088.000000, -155.000000)">
            <g id="ToolTip-/-ðŸ³ï¸-Blanco-/-Top-Right" transform="translate(748.000000, 56.000000)">
                <g id="Group-3" transform="translate(0.000000, 64.000000)">
                    <g id="Icons/26/Grid" transform="translate(340.000000, 35.000000)">
                        <mask id="mask-2" fill="white">
                            <use xlink:href="#path-1"></use>
                        </mask>
                        <use id="Mask" fill="#FFFFFF" xlink:href="#path-1"></use>
                        <g id="ðŸŽ¨-Color-Fill" mask="url(#mask-2)" fill="#DA3851">
                            <g transform="translate(0.000000, 0.769231)" id="Rectangle">
                                <rect x="0" y="0" width="20" height="18.4615385"></rect>
                            </g>
                        </g>
                    </g>
                </g>
            </g>
        </g>
    </g>
</svg>