<?xml version="1.0" encoding="UTF-8"?>
<svg width="124px" height="42px" viewBox="0 0 124 42" version="1.1" xmlns="http://www.w3.org/2000/svg" xmlns:xlink="http://www.w3.org/1999/xlink">
    <title>bbva_logo</title>
    <g id="Symbols" stroke="none" stroke-width="1" fill="none" fill-rule="evenodd">
        <g id="logo-header" transform="translate(-226.000000, -20.000000)" fill="#FFFFFF" fill-rule="nonzero">
            <g id="HEADER">
                <g id="GLOBAL-SOLUTIONS@1x" transform="translate(226.000000, 20.000000)">
                    <path d="M71.0146484,31.4213867 C73.4838867,31.4213867 73.4838867,31.4213867 74.6708984,33.0083008 C75.5976563,34.2460938 75.5976563,34.2460938 75.5976563,36.1757813 C75.5976563,38.2641602 75.5976563,38.2641602 74.5375977,39.6479492 C73.293457,41.2729492 73.293457,41.2729492 70.9892578,41.2729492 C68.8374023,41.2729492 68.8374023,41.2729492 67.605957,39.8510742 C66.5078125,38.4799805 66.5078125,38.4799805 66.5078125,36.3852539 C66.5078125,34.4936523 66.5078125,34.4936523 67.4472656,33.1479492 C68.6533203,31.4213867 68.6533203,31.4213867 71.0146484,31.4213867 Z M87.0107422,34.0493164 C87.734375,34.0493164 87.734375,34.0493164 88.4135742,34.388916 C89.0927734,34.7285156 89.0927734,34.7285156 89.4482422,35.2680664 C89.7910156,35.7822266 89.7910156,35.7822266 89.9052734,36.4677734 C90.0068359,36.9375 90.0068359,36.9375 90.0068359,37.9658203 L90.0068359,37.9658203 L85.0239258,37.9658203 L85.0362293,38.1906919 C85.1064453,39.0699599 85.1064453,39.0699599 85.5126953,39.6257324 C85.9697266,40.2509766 85.9697266,40.2509766 86.9282227,40.2509766 C87.8232422,40.2509766 87.8232422,40.2509766 88.3564453,39.6606445 C88.6611328,39.3178711 88.6611328,39.3178711 88.7880859,38.8671875 L88.7880859,38.8671875 L89.9116211,38.8671875 L89.8855957,39.0204199 C89.817041,39.3337402 89.817041,39.3337402 89.6164551,39.7019043 C89.3657227,40.1621094 89.3657227,40.1621094 89.0546875,40.4541016 C88.5341797,40.9619141 88.5341797,40.9619141 87.7661133,41.1396484 C87.3535156,41.2412109 87.3535156,41.2412109 86.8330078,41.2412109 C85.5634766,41.2412109 85.5634766,41.2412109 84.6811523,40.317627 C83.7988281,39.394043 83.7988281,39.394043 83.7988281,37.730957 C83.7988281,36.0932617 83.7988281,36.0932617 84.6875,35.0712891 C85.5761719,34.0493164 85.5761719,34.0493164 87.0107422,34.0493164 Z M106.358398,34.0366211 C107.558105,34.0366211 107.558105,34.0366211 108.307129,34.4936523 C109.049805,34.9506836 109.049805,34.9506836 109.049805,35.9155273 L109.049805,35.9155273 L109.049805,39.8320313 L109.054367,39.9165344 C109.068054,40.0367432 109.068054,40.0367432 109.122803,40.1176758 C109.195801,40.2255859 109.195801,40.2255859 109.430664,40.2255859 C109.506836,40.2255859 109.506836,40.2255859 109.602051,40.2160645 C109.697266,40.206543 109.697266,40.206543 109.805176,40.1875 L109.805176,40.1875 L109.805176,41.0317383 L109.67981,41.0662537 C109.503662,41.1126709 109.503662,41.1126709 109.398926,41.1269531 C109.259277,41.1459961 109.259277,41.1459961 109.018066,41.1459961 C108.427734,41.1459961 108.427734,41.1459961 108.161133,40.7270508 C108.021484,40.5048828 108.021484,40.5048828 107.964355,40.0986328 C107.615234,40.5556641 107.615234,40.5556641 106.961426,40.8920898 C106.307617,41.2285156 106.307617,41.2285156 105.520508,41.2285156 C104.574707,41.2285156 104.574707,41.2285156 103.974854,40.6540527 C103.375,40.0795898 103.375,40.0795898 103.375,39.2163086 C103.375,38.2705078 103.375,38.2705078 103.965332,37.75 C104.555664,37.2294922 104.555664,37.2294922 105.51416,37.1088867 L105.51416,37.1088867 L107.335938,36.8803711 L107.44307,36.8611986 C107.748535,36.7896903 107.748535,36.7896903 107.862793,36.550293 C107.938965,36.3979492 107.938965,36.3979492 107.938965,36.1123047 C107.938965,35.5283203 107.938965,35.5283203 107.523193,35.2648926 C107.107422,35.0014648 107.107422,35.0014648 106.333008,35.0014648 C105.437988,35.0014648 105.437988,35.0014648 105.063477,35.4838867 C104.854004,35.7504883 104.854004,35.7504883 104.790527,36.2773438 L104.790527,36.2773438 L103.724121,36.2773438 L103.734634,36.0731828 C103.821187,34.9795125 103.821187,34.9795125 104.539795,34.5285645 C105.32373,34.0366211 105.32373,34.0366211 106.358398,34.0366211 Z M119.225098,31.675293 L119.225098,37.0898438 L122.157715,34.2016602 L123.617676,34.2016602 L121.015137,36.7470703 L123.763672,41 L122.303711,41 L120.183594,37.5722656 L119.225098,38.4482422 L119.225098,41 L118.126953,41 L118.126953,31.675293 L119.225098,31.675293 Z M80.2568359,34.0493164 C81.7041016,34.0493164 81.7041016,34.0493164 82.2119141,35.0585938 C82.4912109,35.6108398 82.4912109,35.6108398 82.4912109,36.6391602 L82.4912109,36.6391602 L82.4912109,41 L81.3295898,41 L81.3295898,36.715332 L81.3244765,36.5146756 C81.2989095,36.0297852 81.2989095,36.0297852 81.1455078,35.7124023 C80.8408203,35.0776367 80.8408203,35.0776367 80.0410156,35.0776367 C79.6347656,35.0776367 79.6347656,35.0776367 79.3745117,35.1601563 C78.9047852,35.2998047 78.9047852,35.2998047 78.5493164,35.71875 C78.2636719,36.0551758 78.2636719,36.0551758 78.1779785,36.4138184 C78.0922852,36.7724609 78.0922852,36.7724609 78.0922852,37.4389648 L78.0922852,37.4389648 L78.0922852,41 L76.949707,41 L76.949707,34.2016602 L78.0351563,34.2016602 L78.0351563,35.1665039 L78.1975505,34.9769558 C78.6075033,34.5264486 78.6075033,34.5264486 79.0571289,34.3095703 C79.5966797,34.0493164 79.5966797,34.0493164 80.2568359,34.0493164 Z M99.1474609,31.675293 L99.3765919,31.6802804 C100.834577,31.7451172 100.834577,31.7451172 101.477051,32.652832 C101.883301,33.2304688 101.883301,33.2304688 101.883301,33.9858398 C101.883301,34.8681641 101.883301,34.8681641 101.381836,35.4331055 C101.121582,35.7314453 101.121582,35.7314453 100.632813,35.9790039 C101.350098,36.2519531 101.350098,36.2519531 101.705566,36.5947266 C102.333984,37.2041016 102.333984,37.2041016 102.333984,38.2768555 C102.333984,39.1782227 102.333984,39.1782227 101.769043,39.9082031 C100.924805,41 100.924805,41 99.0839844,41 L99.0839844,41 L95.1420898,41 L95.1420898,31.675293 L99.1474609,31.675293 Z M114.229492,34.0493164 C115.676758,34.0493164 115.676758,34.0493164 116.18457,35.0585938 C116.463867,35.6108398 116.463867,35.6108398 116.463867,36.6391602 L116.463867,36.6391602 L116.463867,41 L115.302246,41 L115.302246,36.715332 L115.297133,36.5146756 C115.271566,36.0297852 115.271566,36.0297852 115.118164,35.7124023 C114.813477,35.0776367 114.813477,35.0776367 114.013672,35.0776367 C113.607422,35.0776367 113.607422,35.0776367 113.347168,35.1601563 C112.877441,35.2998047 112.877441,35.2998047 112.521973,35.71875 C112.236328,36.0551758 112.236328,36.0551758 112.150635,36.4138184 C112.064941,36.7724609 112.064941,36.7724609 112.064941,37.4389648 L112.064941,37.4389648 L112.064941,41 L110.922363,41 L110.922363,34.2016602 L112.007813,34.2016602 L112.007813,35.1665039 L112.170207,34.9769558 C112.58016,34.5264486 112.58016,34.5264486 113.029785,34.3095703 C113.569336,34.0493164 113.569336,34.0493164 114.229492,34.0493164 Z M107.907227,37.5405273 L107.794952,37.6044006 C107.615234,37.6960449 107.615234,37.6960449 107.367676,37.7626953 C107.037598,37.8515625 107.037598,37.8515625 106.720215,37.8896484 L106.720215,37.8896484 L106.02832,37.9785156 L105.829603,38.008667 C105.354411,38.0906576 105.354411,38.0906576 105.095215,38.2387695 C104.568359,38.5371094 104.568359,38.5371094 104.568359,39.190918 C104.568359,39.6860352 104.568359,39.6860352 104.930176,39.9716797 C105.291992,40.2573242 105.291992,40.2573242 105.787109,40.2573242 C106.390137,40.2573242 106.390137,40.2573242 106.955078,39.9780273 C107.907227,39.5146484 107.907227,39.5146484 107.907227,38.4609375 L107.907227,38.4609375 L107.907227,37.5405273 Z M71.0908203,32.5449219 C69.6435547,32.5449219 69.6435547,32.5449219 68.7294922,33.5383301 C67.8154297,34.5317383 67.8154297,34.5317383 67.8154297,36.4677734 C67.8154297,38.0166016 67.8154297,38.0166016 68.5993652,39.079834 C69.3833008,40.1430664 69.3833008,40.1430664 71.1416016,40.1430664 C72.8110352,40.1430664 72.8110352,40.1430664 73.5568848,38.9465332 C74.3027344,37.75 74.3027344,37.75 74.3027344,36.1948242 C74.3027344,34.5507813 74.3027344,34.5507813 73.442627,33.5478516 C72.5825195,32.5449219 72.5825195,32.5449219 71.0908203,32.5449219 Z M98.887207,36.6391602 L96.3798828,36.6391602 L96.3798828,39.9208984 L99.1030273,39.9208984 C100.264648,39.9208984 100.264648,39.9208984 100.759766,39.2480469 C101.070801,38.8227539 101.070801,38.8227539 101.070801,38.2197266 C101.070801,37.2041016 101.070801,37.2041016 100.163086,36.8359375 C99.6806641,36.6391602 99.6806641,36.6391602 98.887207,36.6391602 L98.887207,36.6391602 Z M86.940918,35.0458984 C86.1538086,35.0458984 86.1538086,35.0458984 85.6206055,35.6140137 C85.0874023,36.1821289 85.0874023,36.1821289 85.0556641,37.0581055 L85.0556641,37.0581055 L88.8325195,37.0581055 C88.7626953,36.3154297 88.7626953,36.3154297 88.5087891,35.8710938 C88.0390625,35.0458984 88.0390625,35.0458984 86.940918,35.0458984 Z M98.6333008,32.7290039 L96.3798828,32.7290039 L96.3798828,35.6171875 L98.6777344,35.6171875 C99.4775391,35.6171875 99.4775391,35.6171875 99.921875,35.3950195 C100.620117,35.0458984 100.620117,35.0458984 100.620117,34.1381836 C100.620117,33.2241211 100.620117,33.2241211 99.8774414,32.9067383 C99.4584961,32.7290039 99.4584961,32.7290039 98.6333008,32.7290039 L98.6333008,32.7290039 Z M36.6851086,3.40621601 C40.7802918,3.40621601 43.7054227,5.89787039 43.7054227,9.574108 C43.8074638,11.520016 42.7651357,13.3518057 41.0221026,14.2897808 C41.0221026,14.2897808 44.7974715,15.2375011 44.7974715,19.9226022 C44.7974715,24.6077034 41.8021375,27 36.1312838,27 L24.7895764,27 C24.6668764,27.0020242 24.5485733,26.9551873 24.4617982,26.8701637 C24.3750231,26.7851401 24.3272214,26.6692248 24.3292873,26.5490014 L24.3292873,3.85721459 C24.3272214,3.73699121 24.3750231,3.62107593 24.4617982,3.53605231 C24.5485733,3.45102868 24.6668764,3.40419184 24.7895764,3.40621601 L36.6851086,3.40621601 Z M12.3480198,3.40628316 C16.443203,3.40628316 19.3683338,5.89787039 19.3683338,9.574108 C19.4741903,11.520884 18.4308064,13.3545293 16.6850138,14.2897808 C16.6850138,14.2897808 20.4681831,15.2375011 20.4681831,19.9226022 C20.4681831,24.6077034 17.472849,26.9999329 11.794195,26.9999329 L0.45248758,26.9999329 C0.331134465,26.9999329 0.214861514,26.9521994 0.129788426,26.8674062 C0.0447153372,26.7826131 -0.00202495746,26.6678875 5.21900069e-13,26.5490014 L5.21900069e-13,3.85721459 C-0.00202495746,3.73832856 0.0447153372,3.62360292 0.129788426,3.53880978 C0.214861514,3.45401665 0.331134465,3.40628316 0.45248758,3.40628316 L12.3480198,3.40628316 Z M49.1968683,3.40627335 C49.3662745,3.40627335 49.5220904,3.49710909 49.6024865,3.64321323 L57.5198407,18.401664 C57.6033454,18.5510383 57.7633363,18.6439102 57.9371594,18.6439102 C58.1109825,18.6439102 58.2709733,18.5510383 58.354478,18.401664 L66.2640319,3.64321323 C66.3468796,3.49943235 66.5011638,3.40931172 66.66965,3.40627335 L70.5074217,3.40627335 C70.6289103,3.40537557 70.7418361,3.46746673 70.8043432,3.56954256 C70.8668504,3.67161839 70.8696237,3.79846701 70.8116353,3.90307202 L58.331077,26.7630028 C58.2469285,26.8946241 58.0995722,26.9745514 57.9410595,26.9745514 C57.7825469,26.9745514 57.6351906,26.8946241 57.5510421,26.7630028 L45.0704837,3.90307202 C45.0124953,3.79846701 45.0152687,3.67161839 45.0777759,3.56954256 C45.140283,3.46746673 45.2532088,3.40537557 45.3746973,3.40627335 L49.1968683,3.40627335 Z M11.5679849,16.4297272 L4.43846591,16.4297272 C4.31576594,16.427703 4.19746281,16.4745399 4.1106877,16.5595635 C4.0239126,16.6445871 3.97611092,16.7605024 3.97817679,16.8807258 L3.97817679,23.1479084 C3.97817679,23.2668121 4.02696212,23.3807382 4.11350199,23.4640942 C4.20004185,23.5474501 4.31713083,23.593247 4.43846591,23.5912629 L11.5679849,23.5912629 C15.0001384,23.5912629 16.4900051,22.6587625 16.4900051,20.0143171 C16.4900051,17.3698718 14.968937,16.4297272 11.5679849,16.4297272 Z M35.9050737,16.4297944 L28.7677544,16.4297944 C28.5135816,16.4297944 28.3075338,16.6316832 28.3075338,16.8807258 L28.3075338,23.1479084 C28.3117907,23.3939612 28.5165969,23.5911969 28.7677544,23.5911969 L35.9050737,23.5911969 C39.3372272,23.5911969 40.8192935,22.6587625 40.8192935,20.0143171 C40.8192935,17.3698718 39.2982255,16.4297944 35.9050737,16.4297944 Z M79.0878056,1.48858703e-12 C79.2463183,1.48858703e-12 79.3936745,0.0799272315 79.4778231,0.2115486 L91.9583814,23.0791223 C92.0163698,23.1837273 92.0135964,23.3105759 91.9510893,23.4126517 C91.8885821,23.5147276 91.7756563,23.5768187 91.6541678,23.5759209 L87.8319968,23.5759209 C87.6613989,23.5729268 87.5059765,23.4792128 87.4263787,23.3313381 L79.5012241,8.58053027 C79.4200391,8.43062808 79.261002,8.33691053 79.0878056,8.33691053 C78.9146092,8.33691053 78.7555721,8.43062808 78.6743871,8.58053027 L70.7570329,23.3313381 C70.6766368,23.4774423 70.5208209,23.5684576 70.3514148,23.5682682 L66.5214434,23.5682682 C66.4022574,23.5677596 66.291874,23.5067021 66.2298525,23.4069777 C66.1678311,23.3072533 66.1630527,23.1831417 66.2172298,23.0791223 L78.6977882,0.2115486 C78.7819367,0.0799272315 78.929293,1.48858703e-12 79.0878056,1.48858703e-12 Z M11.45878,6.81501907 L4.43846591,6.81501907 L4.43846591,6.83030488 C4.18604187,6.8343938 3.98241847,7.03390724 3.97824532,7.28123631 L3.97824532,12.5166267 C3.98241847,12.7639557 4.18604187,12.9634692 4.43846591,12.9675581 L11.45878,12.9675581 C14.0406955,12.9675581 15.3589545,11.92048 15.3589545,9.91039585 C15.3589545,7.90031167 14.0484958,6.81501907 11.45878,6.81501907 Z M35.7958688,6.81501907 L28.7755547,6.81501907 L28.7755547,6.83030488 C28.5213819,6.83030488 28.3153341,7.03219376 28.3153341,7.28123631 L28.3153341,12.5166267 C28.3153341,12.7656692 28.5213819,12.9675581 28.7755547,12.9675581 L35.7958688,12.9675581 C38.3777843,12.9675581 39.6960433,11.92048 39.6960433,9.91039585 C39.6960433,7.90031167 38.393385,6.81501907 35.7958688,6.81501907 Z" id="Combined-Shape"></path>
                </g>
            </g>
        </g>
    </g>
</svg>