<?xml version="1.0" encoding="UTF-8"?>
<svg width="24px" height="24px" viewBox="0 0 24 24" version="1.1" xmlns="http://www.w3.org/2000/svg" xmlns:xlink="http://www.w3.org/1999/xlink">
    <!-- Generator: sketchtool 61.2 (101010) - https://sketch.com -->
    <title>EE87CAEA-8433-43AD-B94E-A0EBC5E8729E</title>
    <desc>Created with sketchtool.</desc>
    <g id="Asset-Artboard-Page" stroke="none" stroke-width="1" fill="none" fill-rule="evenodd">
        <g id="Tools-and-Objects/Calendar" fill="#1973B8">
            <path d="M20,3 L22.0976,3 C22.6512,3 23,3.3291 23,3.8656 L23,21.882 C23,22.4297 22.6605,23 22.0976,23 L2.1024,23 C1.5488,23 1,22.4185 1,21.882 L1,3.8656 C1,3.3178 1.5395,3 2.1024,3 L4,3 L4,1 L6,1 L6,3 L18,3 L18,1 L20,1 L20,3 Z M4,6 L20.1,6 L18.1,8 L4,8 L4,6 Z M5,16 L7,16 L7,14 L5,14 L5,16 Z M9,16 L11,16 L11,14 L9,14 L9,16 Z M13,16 L15,16 L15,14 L13,14 L13,16 Z M17,16 L19,16 L19,14 L17,14 L17,16 Z M9,12 L11,12 L11,10 L9,10 L9,12 Z M13,12 L15,12 L15,10 L13,10 L13,12 Z M17,12 L19,12 L19,10 L17,10 L17,12 Z M5,20 L7,20 L7,18 L5,18 L5,20 Z M9,20 L11,20 L11,18 L9,18 L9,20 Z M13,20 L15,20 L15,18 L13,18 L13,20 Z" id="-🎨-Change-color-here"></path>
        </g>
    </g>
</svg>