<?xml version="1.0" encoding="UTF-8"?>
<svg width="52px" height="50px" viewBox="0 0 52 50" version="1.1" xmlns="http://www.w3.org/2000/svg" xmlns:xlink="http://www.w3.org/1999/xlink">
    <!-- Generator: sketchtool 63.1 (101010) - https://sketch.com -->
    <title>A097F395-21DD-4931-AFED-F8F25484FDE4</title>
    <desc>Created with sketchtool.</desc>
    <defs>
        <linearGradient x1="-6.13763344%" y1="-49.2720297%" x2="75.6949814%" y2="104.553105%" id="linearGradient-1">
            <stop stop-color="#192647" stop-opacity="0.5" offset="0%"></stop>
            <stop stop-color="#192647" stop-opacity="0" offset="100%"></stop>
        </linearGradient>
        <linearGradient x1="-65.5988188%" y1="-130.622192%" x2="91.3755555%" y2="164.547579%" id="linearGradient-2">
            <stop stop-color="#192647" stop-opacity="0.5" offset="0%"></stop>
            <stop stop-color="#192647" stop-opacity="0" offset="100%"></stop>
        </linearGradient>
        <linearGradient x1="31.0459913%" y1="33.9650402%" x2="50.3410178%" y2="55.9456751%" id="linearGradient-3">
            <stop stop-color="#FFFFFF" offset="0%"></stop>
            <stop stop-color="#E7F6F7" stop-opacity="0.3" offset="100%"></stop>
            <stop stop-color="#FFFFFF" stop-opacity="0.5" offset="100%"></stop>
        </linearGradient>
        <linearGradient x1="99.9999967%" y1="50.0099309%" x2="-4.35501645e-06%" y2="50.0099309%" id="linearGradient-4">
            <stop stop-color="#043263" stop-opacity="0.5" offset="0%"></stop>
            <stop stop-color="#043263" stop-opacity="0.1" offset="100%"></stop>
        </linearGradient>
    </defs>
    <g id="HOME/DASHBOARD" stroke="none" stroke-width="1" fill="none" fill-rule="evenodd">
        <g id="DASHBOARD" transform="translate(-169.000000, -388.000000)">
            <g id="RATES" transform="translate(148.000000, 367.000000)">
                <g id="Objects/Compass" transform="translate(44.146223, 44.146223) rotate(-0.300000) translate(-44.146223, -44.146223) translate(16.146223, 16.146223)">
                    <g id="Charts">
                        <g id="Cuadrados_blancos">
                            <rect id="Rectangle" x="0" y="0" width="56" height="56"></rect>
                        </g>
                        <g id="Capa_1" transform="translate(4.946667, 5.040000)" fill-rule="nonzero">
                            <path d="M27.6690598,29.1795525 L27.6690598,8.97984599 C27.6698078,8.75253268 27.4861417,8.5676517 27.2588284,8.5668985 C27.2566148,8.5668985 27.2544034,8.5668985 27.2521941,8.5668985 C17.523212,8.7669224 9.25842618,15.7415639 7.42572631,25.298462 C5.59302645,34.8553601 10.6913721,44.3926123 19.6561929,48.1774608 L19.6667466,48.1774608 C20.0378775,48.3331352 20.4147311,48.4791275 20.7973075,48.6154377 L20.8302877,48.6273106 C21.2075811,48.7601108 21.5901512,48.8819177 21.9779983,48.9927311 L22.0149361,49.0032848 C22.2035828,49.0573723 22.3935487,49.1088214 22.586153,49.157632 L22.6389213,49.1708241 C22.8302064,49.2183156 23.0201723,49.2644879 23.2127766,49.3027449 C23.4027425,49.3449595 23.5940276,49.3832165 23.7853127,49.4201543 L23.876338,49.437304 C24.0676231,49.4729227 24.2589082,49.5059028 24.4515125,49.5362446 L24.4633854,49.5362446 C24.6493936,49.5652672 24.8367211,49.5903321 25.0253678,49.6153971 L25.128266,49.6285891 C25.3155935,49.6510157 25.5029209,49.672123 25.6915676,49.6892727 L25.7865506,49.6985071 C25.9593668,49.7143376 26.1335022,49.7275297 26.3076376,49.7380834 L26.3907476,49.7380834 C26.5793943,49.7499562 26.7693602,49.7578715 26.9593261,49.7644675 L27.0846508,49.7644675 C27.2785743,49.7644675 27.4738171,49.773702 27.6690598,49.773702 C27.8643025,49.773702 28.0226074,49.773702 28.1967428,49.7671059 L28.3616438,49.7671059 L28.7217874,49.7539139 L28.9275838,49.7407218 C29.0331204,49.7407218 29.138657,49.7288489 29.2441936,49.7209337 L29.4658205,49.7011456 L29.7626422,49.6747614 L29.9908651,49.6483773 C30.0871673,49.6378236 30.1821502,49.6285891 30.2771332,49.6153971 C30.3721161,49.602205 30.4327997,49.5942898 30.5093137,49.5837361 L30.7889857,49.5454791 L31.0238047,49.5059028 L31.2955614,49.4610498 L31.5303804,49.4175159 L31.7942219,49.3660668 L32.0277216,49.315937 L32.2915631,49.2578918 L32.5250629,49.2011659 L32.7889044,49.1378439 L33.0210849,49.0758412 L33.2770112,49.0072424 L33.5091917,48.9386436 C33.593621,48.9135786 33.6780503,48.8898329 33.7611604,48.8634488 L33.9920217,48.7895731 L34.2400327,48.7091015 L34.4695748,48.6286298 C34.5513657,48.6009264 34.6331566,48.5732231 34.7136283,48.5428813 L34.9418578,48.4571328 L35.1832661,48.3661075 C35.258461,48.3370849 35.3323366,48.3054239 35.4075314,48.2750822 L35.646308,48.17878 L35.8679349,48.0824779 L36.1027538,47.9795797 L36.3230615,47.8780007 L36.5539228,47.7698257 C36.6277984,47.7355263 36.6990357,47.6985885 36.7715921,47.6629699 C36.8441485,47.6273512 36.9246202,47.5890942 36.999815,47.549518 C37.0750098,47.5099418 37.1436086,47.4756424 37.2148458,47.4387046 L37.4391111,47.3199759 L37.6515035,47.2038856 L37.8731304,47.0798801 L38.0815652,46.9571938 L38.2992345,46.825273 L38.5050308,46.6933523 C38.576268,46.6484992 38.6488245,46.6049654 38.7187425,46.5614315 C38.7886605,46.5178977 38.8506632,46.4743638 38.9219004,46.4295108 L39.1329736,46.290994 L39.332174,46.1590732 L39.5392896,46.0152796 C39.60525,45.9691073 39.6712103,45.9216158 39.7345323,45.8741244 L39.9376903,45.7263731 L40.1302946,45.5812603 L40.3294949,45.4282322 L40.5181416,45.2791618 L40.7147035,45.1208568 L40.8993926,44.9665096 C40.9640338,44.912422 41.0313134,44.8596537 41.0919969,44.8042404 C41.1526804,44.7488271 41.213364,44.6987038 41.2727283,44.6459355 L41.461375,44.4797154 L41.6381488,44.3174528 L41.8228379,44.1459559 L41.9956541,43.9797357 L42.1750663,43.8042811 L42.3452441,43.6341033 L42.5206987,43.4546911 L42.6869189,43.2792365 L42.8570966,43.0958666 L43.0193592,42.9164544 L43.1855793,42.7304461 L43.3438842,42.5470763 C43.3979717,42.4837543 43.4520593,42.4151555 43.5048276,42.3557912 L43.6657709,42.1882584 L43.8227566,41.9943349 L43.971827,41.804369 L44.1235359,41.6051686 L44.2686488,41.4112451 C44.3187786,41.3439655 44.3675893,41.2793244 44.4164,41.2080872 C44.4652107,41.13685 44.5100637,41.0761664 44.556236,41.0115252 C44.6024083,40.9468841 44.6525382,40.8796045 44.7000296,40.8044096 L44.8319504,40.6038901 C44.8781227,40.5339721 44.9242949,40.4640541 44.9638711,40.3941361 C45.0034474,40.3242181 45.0522581,40.2622153 45.0957919,40.1896589 C45.1393258,40.1171025 45.1841788,40.0485037 45.2277127,39.9759473 C45.2712465,39.9033909 45.3121419,39.8440265 45.3596334,39.7688317 C45.4071249,39.6936369 45.4453819,39.6250381 45.4915542,39.5524817 C45.5377264,39.4799252 45.573345,39.4126457 45.6129213,39.3414084 C45.6524975,39.2701712 45.6960314,39.1949764 45.7356076,39.12242 C45.7751838,39.0498636 45.81476,38.9799456 45.8530171,38.9087084 L45.9704265,38.6844431 C46.0073643,38.6132059 46.0456214,38.5406494 46.08124,38.468093 L46.1946918,38.2425085 L46.3002284,38.0222009 C46.3371662,37.9456868 46.3727848,37.8691728 46.4070842,37.7926587 C46.4413836,37.7187831 46.475683,37.6449075 46.5086632,37.5697127 C46.5416434,37.4945178 46.577262,37.4153654 46.6102422,37.3375321 C46.6432224,37.2596989 46.6748834,37.1871425 46.7065444,37.1119476 C46.7382053,37.0367528 46.7711855,36.9549619 46.8028465,36.8771287 L46.8938718,36.6489058 C46.9242136,36.5697533 46.9545554,36.4892817 46.983578,36.4101292 C47.0126005,36.3309767 47.0416231,36.2557819 47.0693264,36.1792679 C47.0970298,36.1027538 47.1260524,36.0183245 47.1537557,35.9378529 C47.1814591,35.8573812 47.2078432,35.7835056 47.2342274,35.7056724 L47.3133798,35.4616189 C47.3384448,35.3824665 47.3635097,35.303314 47.3872555,35.2254808 C47.4110012,35.1476475 47.4360661,35.0618991 47.4611311,34.978789 C47.486196,34.8956789 47.5073034,34.8204841 47.5297299,34.7400124 L47.5970095,34.4920014 C47.6181168,34.4115297 47.6392241,34.3310581 47.6590122,34.2505864 C47.6788003,34.1701147 47.7012269,34.083047 47.721015,33.999937 C47.7408031,33.9168269 47.759272,33.8376744 47.7777409,33.7572028 C47.7962098,33.6767311 47.8159979,33.5883442 47.8331542,33.5025957 C47.8503105,33.4168472 47.8687728,33.3403332 47.8846033,33.2585423 C47.9004338,33.1767514 47.9175835,33.0883645 47.933414,33.002616 C47.9492445,32.9168675 47.965075,32.8377151 47.9795863,32.754605 C47.9940976,32.6714949 48.0086088,32.583108 48.0218009,32.4907635 C48.034993,32.3984189 48.0495043,32.3245433 48.0613771,32.2414332 C48.07325,32.1583232 48.0864421,32.0672978 48.098315,31.9775917 C48.1101878,31.8878856 48.1207415,31.8113716 48.1312951,31.7269423 C48.1418488,31.642513 48.1510833,31.5528069 48.1616369,31.4631008 C48.1721906,31.3733947 48.1801058,31.2955614 48.1880211,31.2111321 C48.1959363,31.1267028 48.2038516,31.0343583 48.2117668,30.9472906 C48.219682,30.8602229 48.2262781,30.778432 48.2328741,30.6926835 C48.2394702,30.6069351 48.244747,30.5145905 48.2500238,30.428842 C48.2553007,30.3430935 48.2605775,30.2586643 48.2645351,30.174235 C48.2684927,30.0898057 48.2711311,29.9935035 48.2750822,29.9103935 C48.2790332,29.8272834 48.2750822,29.7402157 48.2829974,29.6544672 L48.2829974,29.1795525 L47.8687662,29.1795604 L27.6690598,29.1795525 Z" id="Path" fill="url(#linearGradient-1)"></path>
                            <path d="M51.040188,26.0174119 C50.8894144,18.4949042 46.6521384,11.6520574 39.9851817,8.16457571 C39.815004,8.0748696 39.6421878,7.98648269 39.4680458,7.90073419 L39.4614497,7.90073419 C39.3005064,7.82158174 39.1382439,7.7450677 38.9746621,7.66987287 L38.8678063,7.6223814 C38.7358856,7.56302321 38.6039648,7.50497808 38.472044,7.44824599 L38.3401233,7.39283928 C38.2082025,7.33875177 38.0762818,7.28466425 37.944361,7.23321516 L37.8216747,7.18440448 C37.6699658,7.12635935 37.5169378,7.06963342 37.3639097,7.0142267 L37.3032261,6.99311938 C37.1224947,6.92847821 36.9417633,6.86779466 36.7583934,6.80843032 L36.749159,6.80843032 C36.577662,6.7530236 36.406165,6.7002553 36.2333488,6.65012541 L36.094832,6.61054918 C35.9629112,6.57229216 35.8309905,6.53667356 35.6990697,6.50105495 L35.5288919,6.4575211 C35.3969712,6.42454091 35.2756041,6.39419914 35.1489602,6.36385736 L34.9787824,6.32428114 L34.5645512,6.23589423 L34.4326304,6.20819087 C34.2479414,6.17125306 34.0619331,6.13695366 33.8759248,6.10661189 L33.8416254,6.10661189 C33.6701285,6.07758932 33.4973123,6.05120517 33.3231769,6.02614022 L33.1464031,6.0037137 C33.0144823,5.986564 32.891796,5.97073351 32.7638329,5.95622222 L32.5567173,5.93379569 L32.192616,5.8994963 L31.982862,5.8823466 L31.5963341,5.85728165 L31.4116451,5.8480472 C31.2243176,5.83881275 31.0356709,5.83221671 30.8470242,5.82816544 C30.8127779,5.82748782 30.7785906,5.83148372 30.7454453,5.84013196 C30.5623622,5.88466611 30.4326465,6.04748911 30.4301546,6.23589423 L30.4301546,26.0240079 C30.4305526,26.0519438 30.4336451,26.0797761 30.4393891,26.107118 C30.4398243,26.1101808 30.4398243,26.1132897 30.4393891,26.1163525 C30.4448628,26.1402538 30.4523655,26.1636446 30.4618156,26.1862705 C30.5277032,26.3366799 30.6762208,26.4339667 30.8404282,26.4342838 L50.6285419,26.4342838 C50.8551251,26.4350376 51.0394213,26.251971 51.040188,26.0253878 C51.040188,26.0227248 51.040188,26.0200661 51.040188,26.0174119 Z" id="Path" fill="url(#linearGradient-2)"></path>
                            <path d="M20.2413472,2.78794758 C13.5468361,2.92627228 7.33604536,6.30569594 3.58394616,11.8516274 C-0.168153031,17.3975589 -0.994586188,24.4197689 1.3674444,30.685263 L20.6582366,23.4005988 L20.6582366,3.20353071 C20.6604205,2.97622533 20.4779398,2.79017132 20.2506345,2.78794758 C20.2475396,2.78794758 20.2444439,2.78794758 20.2413472,2.78794758 Z" id="Path" fill="#2DCCCD"></path>
                            <path d="M20.6582182,23.4005988 L1.36744572,30.685263 C4.88606912,40.0018514 14.5611014,45.4717795 24.3580991,43.6833821 C34.1550968,41.8949847 41.273475,33.3594907 41.273475,23.4005988 L20.6582182,23.4005988 Z" id="Path" fill="#1464A5"></path>
                            <path d="M23.406117,0.451663695 L23.406117,20.2397774 C23.406117,20.4678224 23.5909919,20.6526916 23.8190369,20.6526916 L43.6071506,20.6526916 C43.8344654,20.6534374 44.0193471,20.4697689 44.020098,20.2424541 C44.020098,20.2402396 44.020098,20.2380277 44.020098,20.2358184 C43.7978918,9.17440109 34.8843973,0.260324396 23.8229945,0.0373965266 C23.5956971,0.0345112413 23.409069,0.216404893 23.406117,0.443702277 C23.406117,0.446356523 23.406117,0.449010329 23.406117,0.451663695 Z" id="Path" fill="#F8CD50"></path>
                            <path d="M23.8229958,0.0373979508 C23.5956985,0.0345169883 23.4090739,0.216414151 23.4061229,0.443711512 C23.4061229,0.445922504 23.4061229,0.448133496 23.4061229,0.450344488 L23.4061229,20.2384582 C23.4080599,20.3508055 23.4556969,20.4575124 23.5380457,20.5339607 L32.9743375,2.38562201 C30.1480377,0.901799619 27.0145565,0.0977636634 23.8229958,0.0373979508 L23.8229958,0.0373979508 Z" id="Path" fill="url(#linearGradient-3)" opacity="0.5"></path>
                            <path d="M20.6582182,23.4005967 L10.9778729,41.6056634 C17.3031934,44.9656635 24.9189235,44.8029806 31.0949907,41.1759331 C37.2710578,37.5488855 41.1228248,30.9769983 41.2695514,23.8161491 C41.2709171,23.7073467 41.2290379,23.6024445 41.1530927,23.5245199 C41.0771475,23.4465952 40.9733574,23.4020313 40.864555,23.4005967 C40.8623448,23.4005967 40.8601347,23.4005967 40.8579246,23.4005967 L20.6582182,23.4005967 Z" id="Path" fill="url(#linearGradient-4)"></path>
                        </g>
                    </g>
                </g>
            </g>
        </g>
    </g>
</svg>