<?xml version="1.0" encoding="UTF-8"?>
<svg width="55px" height="55px" viewBox="0 0 55 55" version="1.1" xmlns="http://www.w3.org/2000/svg" xmlns:xlink="http://www.w3.org/1999/xlink">
    <!-- Generator: sketchtool 63.1 (101010) - https://sketch.com -->
    <title>AF2A3AE0-6997-49B7-93D1-97FB705387FB</title>
    <desc>Created with sketchtool.</desc>
    <defs>
        <linearGradient x1="26.5208517%" y1="5.84193915%" x2="73.4782856%" y2="94.1560199%" id="linearGradient-1">
            <stop stop-color="#192647" stop-opacity="0.5" offset="0%"></stop>
            <stop stop-color="#192647" stop-opacity="0" offset="100%"></stop>
        </linearGradient>
        <linearGradient x1="25.6252798%" y1="11.1127608%" x2="76.0287678%" y2="73.8743409%" id="linearGradient-2">
            <stop stop-color="#FFFFFF" stop-opacity="0.5" offset="0%"></stop>
            <stop stop-color="#EBF6F7" stop-opacity="0.2" offset="100%"></stop>
            <stop stop-color="#FFFFFF" stop-opacity="0" offset="100%"></stop>
        </linearGradient>
        <linearGradient x1="-0.580034502%" y1="25.4289562%" x2="79.7926975%" y2="73.4821526%" id="linearGradient-3">
            <stop stop-color="#FFFFFF" offset="0%"></stop>
            <stop stop-color="#E7F6F7" stop-opacity="0.3" offset="100%"></stop>
            <stop stop-color="#FFFFFF" stop-opacity="0.5" offset="100%"></stop>
        </linearGradient>
    </defs>
    <g id="HOME/DASHBOARD" stroke="none" stroke-width="1" fill="none" fill-rule="evenodd">
        <g id="DASHBOARD" transform="translate(-165.000000, -202.000000)">
            <g id="PROVEEDORES" transform="translate(148.000000, 184.000000)">
                <g id="Objects/Compass" transform="translate(44.146223, 44.146223) rotate(-0.300000) translate(-44.146223, -44.146223) translate(16.146223, 16.146223)">
                    <g id="Compass">
                        <g id="Cuadrados_Blancos">
                            <rect id="Rectangle" x="0" y="0" width="56" height="56"></rect>
                        </g>
                        <g id="Capa_28" transform="translate(1.120000, 2.893333)">
                            <g id="Group">
                                <path d="M48.6444,48.6210667 L47.6093333,47.5944 C48.4456,46.7581333 48.02,43.7976 44.3202667,37.9941333 C40.9070667,32.6433333 35.6085333,26.2770667 29.3990667,20.0666667 C23.1896,13.8562667 16.8205333,8.5568 11.4697333,5.14546667 C5.66813333,1.4476 2.7076,1.02106667 1.87133333,1.85453333 L0.8372,0.8092 C2.53493333,-0.888533333 6.38306667,0.1512 12.2565333,3.89946667 C17.6941333,7.36773333 24.15,12.7372 30.4332,19.0204 C36.7164,25.3036 42.0924,31.7632 45.5541333,37.2008 C49.3014667,43.0808 50.3393333,46.9233333 48.6444,48.6210667 Z" id="Path" fill="#D4EDFC" fill-rule="nonzero"></path>
                                <path d="M0.8372,48.6210667 C-0.8624,46.9233333 0.1792,43.0752 3.92746667,37.2008 C7.3948,31.7632 12.7642667,25.3082667 19.0549333,19.0241333 C25.3456,12.74 31.794,7.3724 37.2316,3.90413333 C43.1106667,0.155866667 46.9522667,-0.883866667 48.6518667,0.813866667 L47.6168,1.848 C46.7824,1.0136 43.8209333,1.43826667 38.0184,5.13893333 C32.6676,8.55213333 26.2994667,13.8488 20.0890667,20.0601333 C13.8786667,26.2714667 8.5792,32.6358667 5.16786667,37.9866667 C1.47093333,43.7901333 1.0444,46.7506667 1.8788,47.5869333 L0.8372,48.6210667 Z" id="Path" fill="#D4EDFC" fill-rule="nonzero"></path>
                                <circle id="Oval" fill="url(#linearGradient-1)" fill-rule="nonzero" cx="32.0002667" cy="30.8345333" r="22.1788"></circle>
                                <path d="M25.5948,2.5648 C13.3812,2.5648 3.44493333,12.5010667 3.44493333,24.7146667 C3.44493333,36.9282667 13.3812,46.8654667 25.5948,46.8654667 C37.8084,46.8654667 47.7446667,36.9292 47.7446667,24.7146667 C47.7446667,12.5001333 37.8074667,2.5648 25.5948,2.5648 Z" id="Path" fill="#20669F" fill-rule="nonzero"></path>
                                <circle id="Oval" fill="#52A5DF" fill-rule="nonzero" cx="25.5948" cy="24.7146667" r="19.1828"></circle>
                                <g transform="translate(6.253333, 5.413333)" id="Path">
                                    <path d="M28.9324,2.57973333 L9.67026667,35.9725333 C18.8916,41.2916 30.6786667,38.1285333 35.9977333,28.9072 C41.3168,19.6858667 38.1537333,7.8988 28.9324,2.57973333 Z"></path>
                                    <path d="M19.3414667,0.0289067483 C8.69773333,0.028 0.0681333333,8.65573333 0.0671998215,19.2994667 C0.0662666667,26.1716 3.72586667,32.5248 9.67026667,35.9725333 L28.9333333,2.57973333 C26.0148,0.902533333 22.7070667,0.0233333333 19.3414667,0.0289067483 Z" fill="url(#linearGradient-2)" fill-rule="nonzero" opacity="0.5"></path>
                                </g>
                                <g transform="translate(15.773333, 14.933333)" fill-rule="nonzero">
                                    <path d="M8.3104,4.50706667 L0.667333333,0.0858666667 C0.267866667,-0.1456 -0.1064,0.227733333 0.126,0.629066667 L4.5472,8.27213333 C6.1824,11.0833333 8.5204,13.4213333 11.3316,15.0565333 L18.9746667,19.4777333 C19.376,19.7092 19.7493333,19.3358667 19.5178667,18.9364 L15.0966667,11.2914667 C13.4605333,8.47933333 11.1225333,6.14133333 8.3104,4.50706667 Z" id="Path" fill="#F8CD50"></path>
                                    <circle id="Oval" fill="#EAF9FA" cx="9.81866667" cy="9.78693333" r="1.13306667"></circle>
                                    <path d="M8.3104,4.50706667 L0.667333333,0.0858666667 C0.267866667,-0.1456 -0.1064,0.227733333 0.126,0.629066667 L4.5472,8.27213333 C5.34986667,9.6544 6.328,10.9284 7.45546667,12.0614667 C7.69906667,12.306 7.9492,12.5402667 8.20306667,12.7726667 L11.4016,6.75733333 C10.4505333,5.9024 9.41546667,5.14826667 8.3104,4.50706667 Z" id="Path" fill="url(#linearGradient-3)" opacity="0.5"></path>
                                </g>
                                <path d="M3.03706667,49.4116 C2.09813333,49.4116 1.36546667,49.1484 0.8372,48.6210667 L1.87133333,47.5869333 C2.7076,48.4213333 5.66813333,47.9966667 11.4697333,44.296 C16.8205333,40.8828 23.1886667,35.5861333 29.3990667,29.3757333 C35.6094667,23.1653333 40.9089333,16.7981333 44.3202667,11.4464 C48.0172,5.64293333 48.4437333,2.6824 47.6093333,1.84613333 L48.6444,0.812 C50.3393333,2.5144 49.3014667,6.3532 45.5532,12.2322667 C42.0924,17.6698667 36.7164,24.1285333 30.4313333,30.4089333 C24.1462667,36.6893333 17.6941333,42.0606667 12.2565333,45.5289333 C8.20306667,48.1152 5.11933333,49.4116 3.03706667,49.4116 Z" id="Path" fill="#D4EDFC" fill-rule="nonzero"></path>
                                <path d="M46.4445333,49.4116 C44.3622667,49.4116 41.2766667,48.1142667 37.2241333,45.5308 C31.7865333,42.0625333 25.3306667,36.6930667 19.0549333,30.4108 C12.7792,24.1285333 7.39386667,17.6717333 3.92746667,12.2341333 C0.1792,6.35506667 -0.8624,2.51626667 0.8372,0.8092 L1.87133333,1.84333333 C1.03506667,2.6796 1.46066667,5.64013333 5.1604,11.4436 C8.5736,16.7944 13.8721333,23.1616 20.0816,29.3729333 C26.2910667,35.5842667 32.6592,40.8818667 38.0109333,44.2932 C43.8144,47.9901333 46.7749333,48.4166667 47.6093333,47.5841333 L48.6444,48.6182667 C48.1170667,49.1484 47.3816,49.4116 46.4445333,49.4116 Z" id="Path" fill="#D4EDFC" fill-rule="nonzero"></path>
                                <circle id="Oval" fill="#2DCCCD" fill-rule="nonzero" cx="47.3965333" cy="6.64253333" r="3.74733333"></circle>
                            </g>
                        </g>
                    </g>
                </g>
            </g>
        </g>
    </g>
</svg>