<?xml version="1.0" encoding="UTF-8"?>
<svg width="53px" height="31px" viewBox="0 0 53 31" version="1.1" xmlns="http://www.w3.org/2000/svg" xmlns:xlink="http://www.w3.org/1999/xlink">
    <!-- Generator: sketchtool 63.1 (101010) - https://sketch.com -->
    <title>3EF00F5E-C91B-4261-9232-F7B50D185BAF</title>
    <desc>Created with sketchtool.</desc>
    <defs>
        <linearGradient x1="25.8312982%" y1="28.5911068%" x2="60.8830158%" y2="63.4344985%" id="linearGradient-1">
            <stop stop-color="#192647" stop-opacity="0.5" offset="0%"></stop>
            <stop stop-color="#192647" stop-opacity="0" offset="100%"></stop>
        </linearGradient>
        <linearGradient x1="26.1544954%" y1="29.1839131%" x2="60.3779976%" y2="52.7285742%" id="linearGradient-2">
            <stop stop-color="#FFFFFF" stop-opacity="0.6" offset="0%"></stop>
            <stop stop-color="#FFFFFF" stop-opacity="0.2" offset="100%"></stop>
        </linearGradient>
        <linearGradient x1="26.2015241%" y1="284.396972%" x2="60.4496359%" y2="307.940952%" id="linearGradient-3">
            <stop stop-color="#FFFFFF" stop-opacity="0.6" offset="0%"></stop>
            <stop stop-color="#FFFFFF" stop-opacity="0.2" offset="100%"></stop>
        </linearGradient>
        <linearGradient x1="26.6853646%" y1="29.7957924%" x2="61.0702237%" y2="53.1585598%" id="linearGradient-4">
            <stop stop-color="#FFFFFF" stop-opacity="0.6" offset="0%"></stop>
            <stop stop-color="#FFFFFF" stop-opacity="0.2" offset="100%"></stop>
        </linearGradient>
    </defs>
    <g id="HOME/DASHBOARD" stroke="none" stroke-width="1" fill="none" fill-rule="evenodd">
        <g id="DASHBOARD" transform="translate(-756.000000, -397.000000)">
            <g id="FX-RATES" transform="translate(736.000000, 367.000000)">
                <g id="Objects/Compass" transform="translate(44.146223, 44.146223) rotate(-0.300000) translate(-44.146223, -44.146223) translate(16.146223, 16.146223)">
                    <g id="Tips-Foreign-Currency">
                        <g id="Cuadrados_Blancos">
                            <rect id="Rectangle" x="0" y="0" width="56" height="56"></rect>
                        </g>
                        <g id="Capa_16" transform="translate(4.666667, 14.093333)" fill-rule="nonzero">
                            <path d="M39.3630766,5.99424821 C34.5999548,5.99979522 30.2928407,8.82736704 28.3938313,13.1955615 C25.9504837,11.7591079 22.9713665,11.5640907 20.3616079,12.6697608 C17.7518493,13.7754308 15.8195482,16.0512567 15.1517845,18.8057872 C12.3275121,17.0914051 8.64820567,17.9911487 6.93382305,20.8154208 C5.21944043,23.6396929 6.1191832,27.3189995 8.94345493,29.0333827 C11.7677267,30.7477659 15.4470334,29.848024 17.1614173,27.0237526 C17.173381,26.9998273 17.1973042,26.9639426 17.2092658,26.9400162 C20.5180773,30.6117791 26.1749444,30.9114811 29.8532055,27.6098948 C30.249544,27.2516213 30.613783,26.8593647 30.9417578,26.4376104 C33.9696366,29.4483948 38.3737463,30.6151201 42.4951014,29.4982924 C46.6164565,28.3814646 49.8289252,25.1507564 50.9224015,21.0231443 C52.0158779,16.8955322 50.8242368,12.4980986 47.7963581,9.48731428 C45.5680468,7.23825656 42.5290538,5.979552 39.3630766,5.99424821 L39.3630766,5.99424821 Z" id="Path" fill="url(#linearGradient-1)"></path>
                            <path d="M12.0535984,17.9370857 C12.0535984,21.2403288 9.37579075,23.9181365 6.07254758,23.9181365 C2.76930441,23.9181365 0.0914967343,21.2403288 0.0914967343,17.9370857 C0.0914967343,14.6338425 2.76930441,11.9560348 6.07254758,11.9560348 L6.07254758,11.9560348 C9.37529159,11.9572396 12.0523937,14.6343417 12.0535984,17.9370857 L12.0535984,17.9370857" id="Path" fill="#F6CB5C"></path>
                            <path d="M8.74009633,12.5900287 C5.83811332,11.1495963 2.31682267,12.2810824 0.797087023,15.1423329 C-0.722648621,18.0035835 0.311520243,21.554674 3.12987171,23.152562 L8.74009633,12.5900287 Z" id="Path" fill="url(#linearGradient-2)"></path>
                            <polygon id="Path" fill="#FDF4DC" points="6.45533431 20.7481788 5.58210124 20.7481788 5.58210124 19.2888013 4.29019025 19.2888013 4.29019025 18.6906965 5.58210124 18.6906965 5.58210124 18.2720196 4.29019025 18.2720196 4.29019025 17.6739148 5.30696982 17.6739148 3.9074046 15.1499114 4.90025885 15.1499114 6.04862119 17.4346735 7.25679466 15.1499114 8.23768626 15.1499114 6.74242409 17.6739148 7.75920258 17.6739148 7.75920258 18.2720196 6.45533431 18.2720196 6.45533431 18.6906932 7.75920258 18.6906932 7.75920258 19.2887981 6.45533431 19.2887981"></polygon>
                            <path d="M26.8626803,14.9465603 C26.8626803,19.8998664 22.8483896,23.915927 17.8950839,23.9181253 C12.9417783,23.9203219 8.9239322,19.9078246 8.9195275,14.9545204 C8.91513003,10.0012162 12.9258395,5.98158547 17.8791412,5.97497015 L17.8791412,5.97497015 C20.2607708,5.97132163 22.5460817,6.91498106 24.2312718,8.59792712 C25.9164619,10.2808732 26.8631657,12.5649246 26.8626803,14.946557 L26.8626803,14.946557" id="Path" fill="#F6CB5C"></path>
                            <path d="M21.8864451,6.91998976 C17.5340336,4.75061585 12.2456584,6.4437626 9.96253252,10.7375959 C7.6794066,15.0314293 9.23284123,20.3625173 13.4651241,22.7578147 L21.8864451,6.91998976 Z" id="Path" fill="url(#linearGradient-3)"></path>
                            <path d="M20.5347294,19.2170319 L15.068047,19.2170319 L15.068047,18.367722 L15.1398208,18.3318372 C15.977168,17.9131636 16.4915386,17.1117011 16.4915386,16.2623912 C16.4934784,16.0143438 16.4774876,15.7664806 16.4436912,15.5207387 L15.1278592,15.5207387 L15.1278592,14.4561128 L16.2642589,14.4561128 C16.192839,14.0573479 16.1568129,13.6530495 16.1566014,13.2479394 C16.1566014,11.7287519 17.1973031,10.6641249 18.6925663,10.6641249 C19.4701014,10.6641249 19.9246587,10.879442 20.1280185,10.9990621 L20.2237133,11.0588732 L19.8887761,12.1474244 L19.7452296,12.0636891 C19.4207387,11.8947862 19.0581851,11.8123874 18.6925663,11.8244467 C17.6159767,11.8244467 17.4485081,12.721604 17.4485081,13.2479372 C17.4502283,13.6501887 17.4943317,14.0511392 17.5800877,14.444147 L19.4102956,14.444147 L19.4102956,15.5087739 L17.7236353,15.5087739 C17.7694663,15.9439289 17.7493021,16.3835105 17.6638252,16.8126422 C17.547828,17.2687544 17.3124879,17.6857602 16.981985,18.0208146 L20.5347294,18.0208146 L20.5347294,19.2170319 Z" id="Path" fill="#FDF4DC"></path>
                            <path d="M45.3560897,11.9679975 C45.3571757,15.1377044 44.0984958,18.1779005 41.8571744,20.4192219 C39.615853,22.6605433 36.5756569,23.9192232 33.40595,23.9181372 C26.8148316,23.9181372 21.4318889,18.5591159 21.4318889,11.9679975 C21.4338539,5.3689335 26.7829607,0.0198257692 33.3820247,0.0178375908 L33.3820247,0.0178375908 C36.5554569,0.0117833705 39.6010099,1.26809601 41.8472121,3.50981055 C44.0934144,5.75152508 45.3558154,8.79455951 45.3560897,11.9679975" id="Path" fill="#F6CB5C"></path>
                            <path d="M39.0759858,1.45331165 C33.2721885,-1.68807384 26.0206852,0.470237231 22.8792996,6.27403439 C19.737914,12.0778315 21.8962249,19.3293349 27.700022,22.4707207 C27.7478705,22.4946471 27.7957179,22.5305318 27.8555279,22.5544571 L39.0759858,1.45331165 Z" id="Path" fill="url(#linearGradient-4)"></path>
                            <path d="M34.7935515,14.3245333 C34.7935515,13.5350334 34.4825364,13.2240205 32.9872732,12.554144 C30.8221323,11.5852108 30.2001107,10.8316021 30.2001107,9.33633886 C30.2001107,7.85303934 31.4082831,6.78841345 32.6403787,6.47739728 L32.6403787,4.64719578 L32.7121514,4.64719578 L34.4705823,5.41276924 L34.4705823,6.41758507 C35.0288021,6.49195208 35.5660419,6.6791714 36.049581,6.96784039 L36.1452758,7.02765152 L36.2050869,7.06353627 L36.1931242,7.13531006 L36.1691979,7.24296751 L35.9538819,8.63057223 L35.9179874,8.88178049 L35.9060248,9.06121174 L35.7624783,8.9535532 L35.5591206,8.78608462 C34.9886172,8.33964247 34.2858612,8.09557245 33.5614484,8.09228495 C32.6523284,8.09228495 32.1379579,8.51095857 32.1379579,9.20475824 C32.1379579,9.86267424 32.472895,10.1617267 33.9322736,10.8316053 C36.0974144,11.8244574 36.7912151,12.5900352 36.7912151,14.1929559 C36.7912151,15.6762554 35.7505102,16.7767704 34.5184158,17.1715165 L34.5184158,19.2768473 L34.3748693,19.2768473 L32.6882121,18.3198789 L32.6882121,17.2911377 C32.0901062,17.2193639 30.9895923,16.9801226 30.2957883,16.6092964 L30.1881298,16.5494853 L30.1163571,16.5136005 L30.1163571,16.4418278 L30.1283197,16.3341693 L30.3316763,14.9106787 L30.3675621,14.6594737 L30.3914874,14.4920051 L30.5350339,14.587701 L30.7383916,14.7192805 C31.4907918,15.2334269 32.3753598,15.5199772 33.286317,15.5446651 C34.2193633,15.6044719 34.8055055,15.1140245 34.7935429,14.324529" id="Path" fill="#FDF4DC"></path>
                        </g>
                    </g>
                </g>
            </g>
        </g>
    </g>
</svg>