<?xml version="1.0" encoding="UTF-8"?>
<svg width="121px" height="118px" viewBox="0 0 121 118" version="1.1" xmlns="http://www.w3.org/2000/svg" xmlns:xlink="http://www.w3.org/1999/xlink">
    <title>Objects/Empty-State-Day</title>
    <defs>
        <linearGradient x1="28.1385751%" y1="24.4786512%" x2="78.7824316%" y2="87.6234342%" id="linearGradient-1">
            <stop stop-color="#1C2645" stop-opacity="0.5" offset="0%"></stop>
            <stop stop-color="#1C2645" stop-opacity="0" offset="100%"></stop>
        </linearGradient>
        <linearGradient x1="-2.12181337%" y1="40.3881002%" x2="82.8228309%" y2="56.0517647%" id="linearGradient-2">
            <stop stop-color="#1C2645" stop-opacity="0.5" offset="0%"></stop>
            <stop stop-color="#1C2645" stop-opacity="0" offset="100%"></stop>
        </linearGradient>
        <linearGradient x1="-80.8668858%" y1="7.36096776%" x2="73.2549444%" y2="57.5764169%" id="linearGradient-3">
            <stop stop-color="#1C2645" stop-opacity="0.5" offset="0%"></stop>
            <stop stop-color="#1C2645" stop-opacity="0" offset="100%"></stop>
        </linearGradient>
        <linearGradient x1="-190.161858%" y1="-127.210574%" x2="181.194381%" y2="147.101636%" id="linearGradient-4">
            <stop stop-color="#1C2645" stop-opacity="0.5" offset="0%"></stop>
            <stop stop-color="#1C2645" stop-opacity="0" offset="100%"></stop>
        </linearGradient>
        <linearGradient x1="-62.0054567%" y1="16.0991256%" x2="80.5243418%" y2="59.2454542%" id="linearGradient-5">
            <stop stop-color="#1C2645" stop-opacity="0.5" offset="0%"></stop>
            <stop stop-color="#1C2645" stop-opacity="0" offset="100%"></stop>
        </linearGradient>
        <linearGradient x1="-248.79013%" y1="-154.171602%" x2="92.3582119%" y2="78.9241836%" id="linearGradient-6">
            <stop stop-color="#1C2645" stop-opacity="0.5" offset="0%"></stop>
            <stop stop-color="#1C2645" stop-opacity="0" offset="100%"></stop>
        </linearGradient>
        <linearGradient x1="-476.337941%" y1="-528.142074%" x2="98.9494688%" y2="103.776821%" id="linearGradient-7">
            <stop stop-color="#1C2645" stop-opacity="0.5" offset="0%"></stop>
            <stop stop-color="#1C2645" stop-opacity="0" offset="100%"></stop>
        </linearGradient>
        <linearGradient x1="-406.068079%" y1="-450.96114%" x2="169.21933%" y2="180.942042%" id="linearGradient-8">
            <stop stop-color="#1C2645" stop-opacity="0.5" offset="0%"></stop>
            <stop stop-color="#1C2645" stop-opacity="0" offset="100%"></stop>
        </linearGradient>
        <linearGradient x1="15.8477586%" y1="30.5411551%" x2="66.7179937%" y2="60.0261155%" id="linearGradient-9">
            <stop stop-color="#FFFFFF" stop-opacity="0.5" offset="0%"></stop>
            <stop stop-color="#FFFFFF" stop-opacity="0.2" offset="100%"></stop>
        </linearGradient>
        <linearGradient x1="43.5190994%" y1="43.617993%" x2="65.2722891%" y2="69.6301795%" id="linearGradient-10">
            <stop stop-color="#FFFFFF" stop-opacity="0.2" offset="0%"></stop>
            <stop stop-color="#FFFFFF" stop-opacity="0" offset="100%"></stop>
        </linearGradient>
    </defs>
    <g id="2.2)-FICHERO---1-país" stroke="none" stroke-width="1" fill="none" fill-rule="evenodd">
        <g id="MODAL---No-encuentra-fichero" transform="translate(-346.000000, -256.000000)">
            <g id="Group-2" transform="translate(221.000000, 244.000000)">
                <g id="empty-states-day" transform="translate(114.000000, 0.000000)">
                    <rect id="Rectangle" x="0" y="0" width="132" height="132"></rect>
                    <g transform="translate(11.220000, 12.540000)" fill-rule="nonzero" id="Path">
                        <path d="M117.355286,23.79 C117.597933,23.9246309 117.884143,23.9572968 118.150886,23.8808041 C118.41763,23.8043114 118.643033,23.6249333 118.777457,23.3821714 L120.607457,20.1012429 C120.742919,19.8583519 120.776046,19.5715055 120.699513,19.3041318 C120.622981,19.0367581 120.443093,18.8108847 120.199629,18.6764571 L107.598771,11.6937 C107.35588,11.5582382 107.069034,11.525111 106.80166,11.6016437 C106.534287,11.6781763 106.308413,11.8580637 106.173986,12.1015286 L104.357057,15.3824571 C104.222426,15.6251047 104.18976,15.911314 104.266253,16.1780577 C104.342746,16.4448013 104.522124,16.670204 104.764886,16.8046286 L94.794,34.77 C92.4938447,38.9187074 88.4437717,41.8073624 83.7721714,42.6311571 C79.1002253,43.4558945 75.0501975,46.3454779 72.7503429,50.4949286 L71.4092143,52.9131429 C69.327677,49.1186791 66.1876737,46.0113747 62.3716286,43.9696714 C62.1520286,43.8520286 61.9272,43.737 61.7023714,43.6272 L61.3206857,43.4442 C61.1403,43.3605429 60.9625286,43.2795 60.7795286,43.2010714 C60.5965286,43.1226429 60.4605857,43.0625143 60.2985,42.9971571 C60.1364143,42.9318 59.9351143,42.8507571 59.7495,42.7801714 L59.3939571,42.6494571 C59.1325286,42.5579571 58.8711,42.4690714 58.6096714,42.3880286 L58.2985714,42.2991429 C58.0763571,42.2311714 57.8515286,42.1684286 57.6240857,42.1083 L57.3861857,42.0429429 C57.0986143,41.9697429 56.8058143,41.9043857 56.5130143,41.8416429 L56.2332857,41.7841286 C55.9326429,41.724 55.6293857,41.6691 55.3261286,41.6220429 L55.1457429,41.5959 C54.8634,41.5540714 54.5784429,41.5200857 54.2934857,41.4887143 L54.0948,41.4678 C53.7732429,41.4338143 53.4490714,41.4102857 53.1249,41.3919857 L52.9105286,41.3919857 C52.5706714,41.3763 52.2308143,41.3658429 51.8883429,41.3658429 L51.8883429,41.3658429 C39.6229339,41.3759438 29.6852101,51.3218584 29.6852143,63.5872714 C29.6852143,64.0395429 29.7035143,64.4865857 29.7296571,64.9336286 C29.7558,65.3806714 29.7976286,65.8956857 29.8577571,66.3714857 L29.8734429,66.4734429 C29.9100429,66.7348714 29.9466429,67.0119857 29.9910857,67.2786429 C29.9910857,67.3230857 30.0093857,67.3675286 30.0172286,67.4119714 C30.6266794,70.892276 32.0609878,74.1759459 34.2000857,76.9881 L16.2399429,76.9881 C14.706191,77.0346576 13.4869712,78.2914488 13.4869712,79.8259071 C13.4869712,81.3603655 14.706191,82.6171567 16.2399429,82.6637143 L116.965757,82.6637143 C118.000147,82.6951135 118.969688,82.1612029 119.49616,81.2702623 C120.022632,80.3793216 120.022632,79.2724927 119.49616,78.381552 C118.969688,77.4906114 118.000147,76.9567007 116.965757,76.9881 L101.196386,76.9881 L105.7374,68.7949286 C108.037473,64.6460104 108.34199,59.6805693 106.566129,55.2816857 L106.566129,55.2816857 C104.788325,50.883378 105.091912,45.9174392 107.392243,41.7684429 L117.355286,23.79 Z" fill="url(#linearGradient-1)"></path>
                        <path d="M76.6168714,91.2908571 C76.6631435,89.7307543 75.4565169,88.4185479 73.8980143,88.3341 L21.4685143,88.3341 C19.9347624,88.3806576 18.7155426,89.6374488 18.7155426,91.1719071 C18.7155426,92.7063655 19.9347624,93.9631567 21.4685143,94.0097143 L73.6575,94.0097143 C75.218605,94.0574349 76.5324097,92.8504059 76.6168714,91.2908571 L76.6168714,91.2908571 Z" fill="url(#linearGradient-2)"></path>
                        <path d="M111.813,88.3341 L84.5695286,88.3341 C83.0357767,88.3806576 81.8165569,89.6374488 81.8165569,91.1719071 C81.8165569,92.7063655 83.0357767,93.9631567 84.5695286,94.0097143 L111.854829,94.0097143 C112.610744,93.9875795 113.3257,93.6611713 113.837578,93.104504 C114.349456,92.5478366 114.614888,91.8080731 114.573686,91.0529571 C114.493767,89.5696868 113.297318,88.3913654 111.813,88.3341 Z" fill="url(#linearGradient-3)"></path>
                        <path d="M43.3187143,99.7689857 L34.5399429,99.7689857 C33.006191,99.8155433 31.7869712,101.072335 31.7869712,102.606793 C31.7869712,104.141251 33.006191,105.398042 34.5399429,105.4446 L43.3187143,105.4446 C44.353104,105.475999 45.3226451,104.942089 45.8491171,104.051148 C46.3755892,103.160207 46.3755892,102.053378 45.8491171,101.162438 C45.3226451,100.271497 44.353104,99.7375865 43.3187143,99.7689857 L43.3187143,99.7689857 Z" fill="url(#linearGradient-4)"></path>
                        <path d="M83.9002714,99.7297714 L54.3431571,99.7297714 C52.7758796,99.6640772 51.4520944,100.881351 51.3864002,102.448629 C51.3207059,104.015906 52.5379796,105.339691 54.1052571,105.405386 L83.9081143,105.405386 C85.4418662,105.358828 86.661086,104.102037 86.661086,102.567579 C86.661086,101.03312 85.4418662,99.776329 83.9081143,99.7297714 L83.9002714,99.7297714 Z" fill="url(#linearGradient-5)"></path>
                        <path d="M77.8691143,111.122829 L67.7230714,111.122829 C66.1893196,111.169386 64.9700997,112.426177 64.9700997,113.960636 C64.9700997,115.495094 66.1893196,116.751885 67.7230714,116.798443 L77.8691143,116.798443 C78.6255088,116.776333 79.3408863,116.449564 79.8528428,115.892319 C80.3647993,115.335074 80.6299034,114.594626 80.5879714,113.839071 C80.5156787,112.368916 79.3393381,111.193707 77.8691143,111.122829 Z" fill="url(#linearGradient-6)"></path>
                        <path d="M98.7834,99.7689857 L94.5717857,99.7689857 C93.0380338,99.8155433 91.818814,101.072335 91.818814,102.606793 C91.818814,104.141251 93.0380338,105.398042 94.5717857,105.4446 L98.7834,105.4446 C100.317152,105.398042 101.536372,104.141251 101.536372,102.606793 C101.536372,101.072335 100.317152,99.8155433 98.7834,99.7689857 L98.7834,99.7689857 Z" fill="url(#linearGradient-7)"></path>
                        <path d="M57.0515571,111.122829 L52.8399429,111.122829 C51.306191,111.169386 50.0869712,112.426177 50.0869712,113.960636 C50.0869712,115.495094 51.306191,116.751885 52.8399429,116.798443 L57.0515571,116.798443 C58.585309,116.751885 59.8045288,115.495094 59.8045288,113.960636 C59.8045288,112.426177 58.585309,111.169386 57.0515571,111.122829 L57.0515571,111.122829 Z" fill="url(#linearGradient-8)"></path>
                        <path d="M60.8501631,52.2282 C60.8703294,42.5381514 54.6091027,33.9522741 45.3766099,31.0097366 C36.1441171,28.0671991 26.0693863,31.4465554 20.4787109,39.3612126 C14.8880354,47.2758698 15.0706343,57.9006948 20.9299714,65.6185714 L56.3535429,65.6185714 C59.275571,61.7665084 60.854993,57.0631368 60.8501631,52.2282 Z" fill="#F8CD50"></path>
                        <path d="M49.0962857,32.6262857 C39.8965879,27.7071039 28.5129668,29.8560572 21.7397319,37.7905439 C14.9664969,45.7250306 14.6306269,57.3048415 20.9325857,65.6185714 L31.6746857,65.6185714 L49.0962857,32.6262857 Z" fill="url(#linearGradient-9)"></path>
                        <path d="M92.4594429,57.4358571 C94.7605982,53.2861592 95.0641964,48.3190625 93.2855571,43.92 L93.2855571,43.92 C91.5105313,39.5218715 91.8150355,34.5575879 94.1142857,30.4093714 L104.074714,12.4387714 C104.317923,12.5740264 104.605013,12.6067597 104.872427,12.5297249 C105.139841,12.4526901 105.365519,12.2722419 105.4995,12.0283286 L107.3295,8.75001429 C107.464755,8.50680522 107.497488,8.2197152 107.420453,7.95230132 C107.343419,7.68488744 107.16297,7.45920936 106.919057,7.32522857 L94.3103571,0.339857143 C94.0671481,0.204602212 93.7800581,0.17186884 93.5126442,0.248903664 C93.2452303,0.325938489 93.0195522,0.506386705 92.8855714,0.7503 L91.0686429,4.02861429 C90.9331811,4.27150525 90.9000539,4.55835168 90.9765865,4.82572534 C91.0531192,5.093099 91.2330065,5.31897246 91.4764714,5.4534 L81.5134286,23.4266143 C79.2149794,27.575712 75.1654436,30.4646692 70.4942143,31.2877714 C65.822614,32.1115662 61.772541,35.0002212 59.4723857,39.1489286 L44.7957857,65.6185714 L87.9315,65.6185714 L92.4594429,57.4358571 Z" fill="#D4EDFC"></path>
                        <path d="M89.7039857,55.9065 C91.5429299,52.6040686 91.791765,48.6476866 90.3810857,45.1408714 C88.2896571,39.9123 88.4935714,34.0458429 91.2255,29.1205286 L101.319257,10.9094143 L102.166286,9.38005714 C102.288494,9.16114317 102.318303,8.90251618 102.249103,8.66154026 C102.179902,8.42056433 102.017411,8.21716001 101.797671,8.09644286 L96.3651857,5.08478571 C96.1462717,4.96257759 95.8876448,4.93276803 95.6466688,5.00196886 C95.4056929,5.07116968 95.2022886,5.23366034 95.0815714,5.4534 L94.2319286,6.98275714 L84.2715,24.9533571 C81.5221142,29.9380965 76.6612832,33.4077838 71.0536714,34.3883143 C67.3115334,35.0462547 64.065916,37.3572804 62.22,40.6782857 L48.3982714,65.6185714 L84.3133286,65.6185714 L89.7039857,55.9065 Z" fill="#49A5E6"></path>
                        <path d="M99.1206429,6.61152857 L96.3651857,5.08478571 C96.1462717,4.96257759 95.8876448,4.93276803 95.6466688,5.00196886 C95.4056929,5.07116968 95.2022886,5.23366034 95.0815714,5.4534 L94.2319286,6.98275714 L84.2715,24.9533571 C81.5221142,29.9380965 76.6612832,33.4077838 71.0536714,34.3883143 C67.3115334,35.0462547 64.065916,37.3572804 62.22,40.6782857 L48.3982714,65.6185714 L66.4028571,65.6185714 L99.1206429,6.61152857 Z" fill="url(#linearGradient-10)"></path>
                        <path d="M60.39,82.6584857 C61.4038509,82.7014495 62.3636086,82.2002667 62.9077418,81.3437279 C63.4518749,80.4871892 63.4977167,79.4054232 63.0279989,78.5059207 C62.5582812,77.6064182 61.6443652,77.0258351 60.6305143,76.9828714 L8.19055714,76.9828714 C6.65680528,77.029429 5.43758546,78.2862202 5.43758546,79.8206786 C5.43758546,81.3551369 6.65680528,82.6119282 8.19055714,82.6584857 L60.39,82.6584857 Z" fill="#1464A5"></path>
                        <path d="M98.5350429,76.9828714 L71.2889571,76.9828714 C69.7552053,77.029429 68.5359855,78.2862202 68.5359855,79.8206786 C68.5359855,81.3551369 69.7552053,82.6119282 71.2889571,82.6584857 L98.5768714,82.6584857 C99.3328204,82.6370947 100.047968,82.3108171 100.559588,81.7538953 C101.071208,81.1969735 101.335784,80.4567754 101.293114,79.7017286 C101.2133,78.2194197 100.018343,77.041452 98.5350429,76.9828714 L98.5350429,76.9828714 Z" fill="#1464A5"></path>
                        <path d="M32.8772571,91.2568714 C32.8729558,89.6916765 31.6059474,88.4235004 30.0407571,88.4177571 L21.2619857,88.4177571 C19.7282338,88.4643147 18.509014,89.7211059 18.509014,91.2555643 C18.509014,92.7900226 19.7282338,94.0468139 21.2619857,94.0933714 L30.0407571,94.0933714 C31.5984889,94.0722706 32.8561563,92.8146032 32.8772571,91.2568714 L32.8772571,91.2568714 Z" fill="#1464A5"></path>
                        <path d="M70.6223143,94.0541571 C72.1560662,94.0075996 73.375286,92.7508083 73.375286,91.21635 C73.375286,89.6818917 72.1560662,88.4251004 70.6223143,88.3785429 L41.0652,88.3785429 C40.0513492,88.3360461 39.0918406,88.8376605 38.5481119,89.6944327 C38.0043832,90.5512049 37.9590398,91.6329709 38.4291619,92.5322398 C38.8992841,93.4315088 39.8134492,94.0116604 40.8273,94.0541571 L70.6301571,94.0541571 L70.6223143,94.0541571 Z" fill="#1464A5"></path>
                        <path d="M64.5911571,99.7689857 L54.4451143,99.7689857 C52.9244687,99.8342579 51.7252518,101.086054 51.7252518,102.6081 C51.7252518,104.130146 52.9244687,105.381942 54.4451143,105.447214 L64.5911571,105.447214 C65.3487812,105.425211 66.0651872,105.097275 66.576969,104.538207 C67.0887508,103.979138 67.3522628,103.236615 67.3074,102.48 C67.2365216,101.009776 66.0613121,99.8334356 64.5911571,99.7611429 L64.5911571,99.7689857 Z" fill="#1464A5"></path>
                        <path d="M85.5054429,88.4177571 L81.3042857,88.4177571 C79.7705338,88.4643147 78.551314,89.7211059 78.551314,91.2555643 C78.551314,92.7900226 79.7705338,94.0468139 81.3042857,94.0933714 L85.5159,94.0933714 C87.0496519,94.0468139 88.2688717,92.7900226 88.2688717,91.2555643 C88.2688717,89.7211059 87.0496519,88.4643147 85.5159,88.4177571 L85.5054429,88.4177571 Z" fill="#1464A5"></path>
                        <path d="M43.7736,99.7689857 L39.5619857,99.7689857 C38.0413401,99.8342579 36.8421232,101.086054 36.8421232,102.6081 C36.8421232,104.130146 38.0413401,105.381942 39.5619857,105.447214 L43.7736,105.447214 C45.2942456,105.381942 46.4934625,104.130146 46.4934625,102.6081 C46.4934625,101.086054 45.2942456,99.8342579 43.7736,99.7689857 L43.7736,99.7689857 Z" fill="#1464A5"></path>
                        <path d="M106.526914,68.4681429 C106.526914,66.8984428 105.25749,65.6243318 103.6878,65.6185714 L2.96198571,65.6185714 C1.42823385,65.665129 0.209014027,66.9219202 0.209014027,68.4563786 C0.209014027,69.9908369 1.42823385,71.2476282 2.96198571,71.2941857 L103.6878,71.2941857 C105.248354,71.288512 106.514039,70.0286537 106.526914,68.4681429 L106.526914,68.4681429 Z" fill="#1464A5"></path>
                        <path d="M58.1312571,41.5671429 L44.7984,65.6185714 L56.3561571,65.6185714 C61.6261266,58.6483047 62.3217839,49.2364704 58.1338714,41.5671429 L58.1312571,41.5671429 Z" fill="#F8CD50" opacity="0.2"></path>
                    </g>
                </g>
            </g>
        </g>
    </g>
</svg>