<?xml version="1.0" encoding="UTF-8"?>
<svg width="14px" height="20px" viewBox="0 0 14 20" version="1.1" xmlns="http://www.w3.org/2000/svg" xmlns:xlink="http://www.w3.org/1999/xlink">
    <!-- Generator: Sketch 63.1 (92452) - https://sketch.com -->
    <title>Navigation/Settings 2</title>
    <desc>Created with Sketch.</desc>
    <defs>
        <path d="M12.9905707,12.2792586 L12.9905707,8.15597668 L13.9836354,8.15597668 L13.9836354,11.4164237 L15.6068245,11.4164237 L15.7550542,12.2792586 L12.9905707,12.2792586 Z M12.3457717,12.2792586 L11.3822788,12.2792586 L11.3822788,10.1259892 C11.3600443,10.209982 11.3303984,10.3016104 11.3081639,10.3932389 L11.3006783,10.4085103 L10.7077596,12.2868943 L9.84810164,12.2868943 L9.24777146,10.3856032 C9.21812552,10.2787033 9.18840547,10.1947105 9.16617102,10.103082 L9.16617102,12.2945301 L8.25463264,12.2945301 L8.25463264,8.17124809 L9.49968779,8.17124809 L10.3076136,10.912467 L11.063585,8.17124809 L12.3382861,8.17124809 L12.3382861,12.2792586 L12.3457717,12.2792586 Z M6.83903925,12.34798 L6.03118752,10.9582813 L5.27514207,12.2792586 L4.20047693,12.2792586 L5.48266361,10.1107178 L4.3561922,8.24760516 L5.40854878,8.09489102 L6.09040528,9.28606136 L6.70555843,8.16361238 L7.75798912,8.16361238 L6.61669474,10.1183535 L7.861824,12.2029016 L6.83903925,12.34798 Z M12.2716568,0.833333333 L9.67763752,0.833333333 L3.85213719,0.833333333 C3.59273526,0.833333333 3.33333333,1.04713314 3.33333333,1.3143829 L3.33333333,18.6856171 C3.33333333,18.9528669 3.59273526,19.1666667 3.85213719,19.1666667 L16.244138,19.1666667 C16.5035399,19.1666667 16.6666667,18.9528669 16.6666667,18.6856171 L16.6666667,5.41475774 L12.2716568,0.833333333 Z" id="path-1"></path>
    </defs>
    <g id="FICHERO---caso-real" stroke="none" stroke-width="1" fill="none" fill-rule="evenodd">
        <g id="Documents/XML-Doc" transform="translate(-3.000000, 0.000000)">
            <polygon id="Bounding-Box" points="0 0 20 0 20 20 0 20"></polygon>
            <mask id="mask-2" fill="white">
                <use xlink:href="#path-1"></use>
            </mask>
            <use id="Mask" fill="#FFFFFF" fill-rule="evenodd" xlink:href="#path-1"></use>
            <g id="Primary/Medium-Blue/Medium-Blue" mask="url(#mask-2)" fill="#1973B8" fill-rule="evenodd">
                <rect id="Rectangle" x="0" y="0" width="20" height="20"></rect>
            </g>
        </g>
    </g>
</svg>