<?xml version="1.0" encoding="UTF-8"?>
<svg width="20px" height="20px" viewBox="0 0 20 20" version="1.1" xmlns="http://www.w3.org/2000/svg" xmlns:xlink="http://www.w3.org/1999/xlink">
    <!-- Generator: sketchtool 61.2 (101010) - https://sketch.com -->
    <title>FA6A9EAB-5336-4660-9D75-2791EE64DFDC</title>
    <desc>Created with sketchtool.</desc>
    <defs>
        <path d="M9,0.75 C13.5563492,0.75 17.25,4.44365081 17.25,9 C17.25,13.5563492 13.5563492,17.25 9,17.25 C4.44365081,17.25 0.75,13.5563492 0.75,9 C0.75,4.44365081 4.44365081,0.75 9,0.75 Z M12.7812499,5.21875012 L7.28125004,10.7187499 L5.21875009,8.65625001 L4.18750012,9.68749998 L7.28125004,12.7812499 L13.8124999,6.25000009 L12.7812499,5.21875012 Z" id="path-1"></path>
    </defs>
    <g id="Asset-Artboard-Page" stroke="none" stroke-width="1" fill="none" fill-rule="evenodd">
        <g id="Symbols/Checkmark/Filled" transform="translate(10.000000, 10.000000) rotate(0.100000) translate(-10.000000, -10.000000) translate(1.000000, 1.000000)">
            <polygon id="Bounding-Box" points="0 0 18 0 18 18 0 18"></polygon>
            <mask id="mask-2" fill="white">
                <use xlink:href="#path-1"></use>
            </mask>
            <use id="Mask" fill="#FFFFFF" xlink:href="#path-1"></use>
            <g id="🎨-Color-Fill-Primary/Medium-Blue/Medium-Blue" mask="url(#mask-2)" fill="#028484">
                <rect id="Rectangle" x="0" y="0" width="18" height="18"></rect>
            </g>
        </g>
    </g>
</svg>