<?xml version="1.0" encoding="UTF-8"?>
<svg width="20px" height="20px" viewBox="0 0 20 20" version="1.1" xmlns="http://www.w3.org/2000/svg" xmlns:xlink="http://www.w3.org/1999/xlink">
    <title>Navigation/Settings</title>
    <g id="EXTRAS" stroke="none" stroke-width="1" fill="none" fill-rule="evenodd">
        <g id="Notificaciones" transform="translate(-358.000000, -34.000000)" fill="#1973B8">
            <g id="Group-3-Copy-+-Group-4-+-Abrir-fichero-Copy-+-Rectangle-+-Notificaciones-+-Scroll-+-Navigation/Settings-Mask" transform="translate(16.000000, 8.000000)">
                <g id="Security-and-Navigation/Open-Outside" transform="translate(340.000000, 24.000000)">
                    <path d="M21.0081969,2 C21.5559546,2 22,2.45530558 22,2.99180311 L22,21.0081969 C22,21.5559546 21.5446944,22 21.0081969,22 L2.99180311,22 C2.44404538,22 2,21.5446944 2,21.0081969 L2,2.99180311 C2,2.44404538 2.45530558,2 2.99180311,2 L21.0081969,2 Z M17.4545455,6.54545455 L9.27272727,6.54545455 L9.27272727,8.36363636 L14.2363637,8.36363636 L6.52654545,16.1818182 L9.09781818,16.1818182 L15.6363636,9.75954545 L15.6363636,14.7272727 L17.4545455,14.7272727 L17.4545455,6.54545455 Z" id="-🎨-Change-color-here"></path>
                </g>
            </g>
        </g>
    </g>
</svg>