<?xml version="1.0" encoding="UTF-8"?>
<svg width="66px" height="102px" viewBox="0 0 66 102" version="1.1" xmlns="http://www.w3.org/2000/svg" xmlns:xlink="http://www.w3.org/1999/xlink">
    <title>465A129C-AB63-4755-B698-982E0CC63304</title>
    <defs>
        <linearGradient x1="24.1461423%" y1="-1.75886305%" x2="68.1531735%" y2="107.186873%" id="linearGradient-1">
            <stop stop-color="#192647" offset="0%"></stop>
            <stop stop-color="#192647" stop-opacity="0.5" offset="0%"></stop>
            <stop stop-color="#192647" stop-opacity="0" offset="100%"></stop>
        </linearGradient>
        <linearGradient x1="100%" y1="50%" x2="0%" y2="50%" id="linearGradient-2">
            <stop stop-color="#043263" stop-opacity="0.1" offset="0%"></stop>
            <stop stop-color="#043263" stop-opacity="0" offset="100%"></stop>
        </linearGradient>
    </defs>
    <g id="MONITOR" stroke="none" stroke-width="1" fill="none" fill-rule="evenodd">
        <g id="HOME-Diferido---Pendiente-autorizar" transform="translate(-692.000000, -686.000000)">
            <g id="MODAL" transform="translate(444.000000, 592.000000)">
                <g id="Illustration" transform="translate(248.000000, 94.000000)">
                    <g id="Products-and-Services/Payroll" transform="translate(0.000000, 17.000000)" fill-rule="nonzero">
                        <g id="Payroll" transform="translate(0.560000, 0.973333)">
                            <path d="M45.92,11.2 L9.94933333,11.2 C9.61333333,11.2 9.33333333,11.48 9.33333333,11.816 L9.33333333,82.6933333 C9.33333333,83.0106667 9.576,83.2533333 9.89333333,83.2533333 L11.8346667,83.2533333 L62.72,83.44 L63.6533333,83.44 C63.9706667,83.44 64.2133333,83.1973333 64.2133333,82.88 L64.2133333,29.4933333 L45.92,11.2 Z" id="Path" fill="url(#linearGradient-1)"></path>
                            <path d="M54.88,18.2933333 L36.5866667,0 L0.616,0 C0.28,0 0,0.28 0,0.616 L0,71.4933333 C0,71.8106667 0.242666667,72.0533333 0.56,72.0533333 L54.32,72.0533333 C54.6373333,72.0533333 54.88,71.8106667 54.88,71.4933333 L54.88,18.2933333 Z" id="Path" fill="#D4EDFC"></path>
                            <path d="M39.76,3.36 L2.50133333,72.0533333 L53.3866667,72.24 L54.32,72.24 C54.6373333,72.24 54.88,71.9973333 54.88,71.68 L54.88,18.48 L39.76,3.36 Z" id="Path" fill="url(#linearGradient-2)"></path>
                            <g id="Group" opacity="0.35" transform="translate(6.346667, 7.653333)" fill="#49A5E6">
                                <path d="M19.4133333,1.86666667 L0.933333333,1.86666667 C0.410666667,1.86666667 0,1.456 0,0.933333333 C0,0.410666667 0.410666667,0 0.933333333,0 L19.4133333,0 C19.936,0 20.3466667,0.410666667 20.3466667,0.933333333 C20.3466667,1.456 19.936,1.86666667 19.4133333,1.86666667 Z" id="Path"></path>
                            </g>
                            <g id="Group" opacity="0.35" transform="translate(6.346667, 12.880000)" fill="#49A5E6">
                                <path d="M19.4133333,1.86666667 L0.933333333,1.86666667 C0.410666667,1.86666667 0,1.456 0,0.933333333 C0,0.410666667 0.410666667,0 0.933333333,0 L19.4133333,0 C19.936,0 20.3466667,0.410666667 20.3466667,0.933333333 C20.3466667,1.456 19.936,1.86666667 19.4133333,1.86666667 Z" id="Path"></path>
                            </g>
                            <g id="Group" opacity="0.35" transform="translate(32.106667, 61.413333)" fill="#49A5E6">
                                <path d="M13.6266667,1.86666667 L0.933333333,1.86666667 C0.410666667,1.86666667 0,1.456 0,0.933333333 C0,0.410666667 0.410666667,0 0.933333333,0 L13.6266667,0 C14.1493333,0 14.56,0.410666667 14.56,0.933333333 C14.56,1.456 14.1493333,1.86666667 13.6266667,1.86666667 Z" id="Path"></path>
                            </g>
                            <path d="M37.2773333,18.2933333 L54.88,18.2933333 L36.5866667,0 L36.5866667,17.6026667 C36.5866667,17.9946667 36.8853333,18.2933333 37.2773333,18.2933333 Z" id="Path" fill="#1464A5"></path>
                            <g id="Group" opacity="0.35" transform="translate(6.346667, 26.880000)" fill="#49A5E6">
                                <g transform="translate(5.413333, 5.413333)" id="Path">
                                    <path d="M15.68,1.86666667 L0.933333333,1.86666667 C0.410666667,1.86666667 0,1.456 0,0.933333333 C0,0.410666667 0.410666667,0 0.933333333,0 L15.68,0 C16.2026667,0 16.6133333,0.410666667 16.6133333,0.933333333 C16.6133333,1.456 16.2026667,1.86666667 15.68,1.86666667 Z"></path>
                                </g>
                                <g transform="translate(5.413333, 10.640000)" id="Path">
                                    <path d="M15.68,1.86666667 L0.933333333,1.86666667 C0.410666667,1.86666667 0,1.456 0,0.933333333 C0,0.410666667 0.410666667,0 0.933333333,0 L15.68,0 C16.2026667,0 16.6133333,0.410666667 16.6133333,0.933333333 C16.6133333,1.456 16.2026667,1.86666667 15.68,1.86666667 Z"></path>
                                </g>
                                <g transform="translate(5.413333, 15.866667)" id="Path">
                                    <path d="M15.68,1.86666667 L0.933333333,1.86666667 C0.410666667,1.86666667 0,1.456 0,0.933333333 C0,0.410666667 0.410666667,0 0.933333333,0 L15.68,0 C16.2026667,0 16.6133333,0.410666667 16.6133333,0.933333333 C16.6133333,1.456 16.2026667,1.86666667 15.68,1.86666667 Z"></path>
                                </g>
                                <g transform="translate(5.413333, 21.093333)" id="Path">
                                    <path d="M15.68,1.86666667 L0.933333333,1.86666667 C0.410666667,1.86666667 0,1.456 0,0.933333333 C0,0.410666667 0.410666667,0 0.933333333,0 L15.68,0 C16.2026667,0 16.6133333,0.410666667 16.6133333,0.933333333 C16.6133333,1.456 16.2026667,1.86666667 15.68,1.86666667 Z"></path>
                                </g>
                                <path d="M39.3866667,0 L0.933333333,0 C0.410666667,0 0,0.410666667 0,0.933333333 L0,27.0666667 C0,27.5893333 0.410666667,28 0.933333333,28 L39.3866667,28 C39.9093333,28 40.32,27.5893333 40.32,27.0666667 L40.32,0.933333333 C40.32,0.410666667 39.9093333,0 39.3866667,0 Z M1.86666667,1.86666667 L25.5733333,1.86666667 L25.5733333,26.1333333 L1.86666667,26.1333333 L1.86666667,1.86666667 Z M38.4533333,26.1333333 L27.44,26.1333333 L27.44,1.86666667 L38.4533333,1.86666667 L38.4533333,26.1333333 Z" id="Shape"></path>
                            </g>
                        </g>
                    </g>
                    <rect id="Rectangle" fill="#FFFFFF" x="40" y="12" width="11" height="21"></rect>
                    <g id="💎-alarm-icon" transform="translate(27.000000, 1.000000)" fill="#D8BE75">
                        <path d="M18.06417,1.33606692 C18.5809135,0.444187027 19.4184473,0.442879711 19.9360435,1.33606692 L19.9360435,1.33606692 L37.1350754,34.0519864 C37.6519894,34.9438663 37.1234785,35.6666667 35.9521932,35.6666667 L35.9521932,35.6666667 L2.04784981,35.6666667 C0.877758311,35.6666667 0.347371405,34.9450283 0.865138172,34.0519864 L0.865138172,34.0519864 Z M19.0000041,27.3333333 C17.734353,27.3333333 16.7083401,28.3593462 16.7083401,29.6249973 C16.7083401,30.8906483 17.734353,31.9166612 19.0000041,31.9166612 C20.2656551,31.9166612 21.291668,30.8906483 21.291668,29.6249973 C21.291668,28.3593462 20.2656551,27.3333333 19.0000041,27.3333333 Z M17.3333333,12.3333333 L17.3333333,24 L20.6666667,24 L20.6666667,15.25 L17.3333333,12.3333333 Z" id="Icon"></path>
                    </g>
                </g>
            </g>
        </g>
    </g>
</svg>