<?xml version="1.0" encoding="UTF-8"?>
<svg width="102px" height="99px" viewBox="0 0 102 99" version="1.1" xmlns="http://www.w3.org/2000/svg" xmlns:xlink="http://www.w3.org/1999/xlink">
    <!-- Generator: sketchtool 63.1 (101010) - https://sketch.com -->
    <title>E921C99C-B446-4F2E-AD60-A3F5CEDA407D</title>
    <desc>Created with sketchtool.</desc>
    <defs>
        <polygon id="path-1" points="0 96.4649248 0 0.0757993764 96.8869847 0.0757993764 96.8869847 96.4649248 2.89536863e-16 96.4649248"></polygon>
        <polygon id="path-3" points="37.397818 0.294012328 37.397818 17.182285 0.0889804274 17.182285 0.0889804274 0.294012328"></polygon>
        <polygon id="path-5" points="10.9438249 0.200174409 0.347265453 0.200174409 0.347265453 10.7413969 10.9438249 10.7413969 10.9438249 0.200174409"></polygon>
    </defs>
    <g id="DEV_ASSETS" stroke="none" stroke-width="1" fill="none" fill-rule="evenodd">
        <g id="ILUSTRACIONES" transform="translate(-42.000000, -52.000000)">
            <g id="Micro" transform="translate(42.000000, 52.000000)">
                <g id="Page-1">
                    <g id="Group-3" transform="translate(0.000000, 2.087533)">
                        <mask id="mask-2" fill="white">
                            <use xlink:href="#path-1"></use>
                        </mask>
                        <g id="Clip-2"></g>
                        <path d="M96.8869847,48.2701715 C96.8869847,74.8872674 75.1979366,96.4649248 48.4434349,96.4649248 C21.6889331,96.4649248 -0.00011497587,74.8872674 -0.00011497587,48.2701715 C-0.00011497587,21.6526943 21.6889331,0.0757993764 48.4434349,0.0757993764 C75.1979366,0.0757993764 96.8869847,21.6526943 96.8869847,48.2701715" id="Fill-1" fill="#D0EFF0" mask="url(#mask-2)"></path>
                    </g>
                    <path d="M20.0254239,20.3055014 L26.1865976,20.3218967 C26.5625687,19.7518762 26.7794898,19.0728084 26.7821726,18.340742 C26.7860051,16.3252716 25.1475989,14.6842227 23.1209576,14.679266 C22.4698109,14.6765971 21.8581393,14.8470313 21.324268,15.1406204 C21.1433726,11.7387993 18.317649,9.03244128 14.8507433,9.02290916 C11.7371967,9.01413962 9.13069374,11.1821238 8.48529586,14.0882749 C7.81000425,13.6440784 7.00210714,13.3848049 6.13288956,13.3832797 C3.75710483,13.375654 1.82665997,15.2862711 1.82091118,17.6487104 C1.81899491,18.6308995 2.14935891,19.5349253 2.70699188,20.259366 L9.51854568,20.278049" id="Fill-4" fill-opacity="0.45" fill="#5BBEFF"></path>
                    <g id="Group-8" opacity="0.45" transform="translate(64.003234, 71.100044)">
                        <mask id="mask-4" fill="white">
                            <use xlink:href="#path-3"></use>
                        </mask>
                        <g id="Clip-7"></g>
                        <path d="M27.299564,17.1578828 L36.5083647,17.182285 C37.0694469,16.3308765 37.3948286,15.3155156 37.3978946,14.2204663 C37.4036434,11.2086993 34.9550407,8.75665813 31.9254265,8.74941373 C30.9519641,8.74598217 30.037906,8.9999177 29.2407399,9.43763241 C28.9693969,4.35396498 24.7463332,0.30853549 19.5639874,0.294046675 C14.910914,0.281845568 11.014765,3.52162072 10.0501175,7.86521477 C9.04062931,7.2013983 7.83299942,6.81439444 6.53377209,6.81134416 C2.98293397,6.80143076 0.098189393,9.6557272 0.0889913234,13.1875663 C0.0863085531,14.6551307 0.579171783,16.0067846 1.41313009,17.0888703 L11.5942434,17.116704" id="Fill-6" fill="#5BBEFF" mask="url(#mask-4)"></path>
                    </g>
                    <polygon id="Fill-9" fill="#FFFFFF" points="16.5537659 40.6986221 12.5445573 41.9785945 16.5537659 43.2619984 17.8434119 47.2509978 19.1322914 43.2619984 23.1411167 41.9785945 19.1322914 40.6986221 17.8434119 36.710004"></polygon>
                    <polygon id="Fill-11" fill="#FFFFFF" points="44.4749277 21.5502431 40.4657191 22.8302155 44.4749277 24.1136194 45.7645737 28.1026188 47.0534532 24.1136194 51.0622786 22.8302155 47.0534532 21.5502431 45.7645737 17.561625"></polygon>
                    <g id="Group-15" transform="translate(82.399374, 0.181110)">
                        <mask id="mask-6" fill="white">
                            <use xlink:href="#path-5"></use>
                        </mask>
                        <g id="Clip-14"></g>
                        <polygon id="Fill-13" fill="#F8CD51" mask="url(#mask-6)" points="4.35647404 4.18863998 0.347265453 5.46861235 4.35647404 6.75239756 5.64612005 10.7413969 6.93499955 6.75239756 10.9438249 5.46861235 6.93499955 4.18863998 5.64612005 0.200021896"></polygon>
                    </g>
                    <polygon id="Fill-16" fill="#FFFFFF" points="75.2853949 59.6854127 73.1000868 60.3831635 75.2853949 61.0824394 75.9878974 63.2569054 76.6904 61.0824394 78.8753248 60.3831635 76.6904 59.6854127 75.9878974 57.5117092"></polygon>
                    <polygon id="Fill-18" fill="#F8CD51" points="5.66597255 91.5092928 3.48066451 92.2066623 5.66597255 92.9063195 6.36885837 95.0804042 7.07136094 92.9063195 9.25590247 92.2066623 7.07136094 91.5092928 6.36885837 89.3355893"></polygon>
                    <polygon id="Fill-20" fill="#FFFFFF" points="59.6582962 51.5700752 56.9594293 52.4313971 59.6582962 53.2950067 60.5259808 55.980394 61.3936653 53.2950067 64.092149 52.4313971 61.3936653 51.5700752 60.5259808 48.8850691"></polygon>
                    <polygon id="Fill-22" fill="#FFFFFF" points="36.031828 73.4757137 33.3329611 74.3374169 36.031828 75.2010264 36.8995126 77.8860325 37.7671971 75.2010264 40.4656808 74.3374169 37.7671971 73.4757137 36.8995126 70.7910889"></polygon>
                </g>
            </g>
        </g>
    </g>
</svg>