<?xml version="1.0" encoding="UTF-8"?>
<svg width="24px" height="24px" viewBox="0 0 24 24" version="1.1" xmlns="http://www.w3.org/2000/svg" xmlns:xlink="http://www.w3.org/1999/xlink">
    <title>8FAF237E-13ED-458A-93FA-1425833D3AA3</title>
    <defs>
        <path d="M11.9999497,1 C12.8297777,1 13.637874,1.09246026 14.4150832,1.26661555 L14.4150832,1.26661555 L14.7305949,3.86234429 C15.1310211,3.99716121 15.5181669,4.16045065 15.8898188,4.35020044 L15.8898188,4.35020044 L17.9623766,2.75503458 C19.3097404,3.62571041 20.4541746,4.78302311 21.3103623,6.140549 L21.3103623,6.140549 L19.6964837,8.20123567 C19.8878432,8.58737547 20.051535,8.98951221 20.183736,9.40573429 L20.183736,9.40573429 L22.7674912,9.74177049 C22.9196129,10.4706873 23,11.2259639 23,11.9999539 C23,12.8209286 22.9092501,13.620574 22.7387169,14.3902377 L22.7387169,14.3902377 L20.123169,14.7727556 C19.9740656,15.2083953 19.7920628,15.6287424 19.577865,16.0297725 L19.577865,16.0297725 L21.1985851,18.0328098 C20.3321352,19.3511985 19.1902162,20.4719899 17.8543219,21.313489 L17.8543219,21.313489 L15.8563158,19.666811 C15.4961334,19.8488138 15.1214632,20.0057649 14.7345187,20.136155 L14.7345187,20.136155 L14.3277541,22.7523074 C13.577307,22.9139871 12.7986893,22.9999078 11.9999497,22.9999078 C11.1739449,22.9999078 10.3694705,22.9082524 9.59538019,22.7356062 L9.59538019,22.7356062 L9.29747516,20.1470208 C8.92290561,20.0224661 8.55960433,19.8736644 8.20978474,19.700817 L8.20978474,19.700817 L6.11338245,21.293367 C4.77356437,20.4429137 3.63043806,19.3108541 2.76680523,17.9802916 L2.76680523,17.9802916 L4.35009855,15.8895226 C4.16155616,15.5201846 3.99917226,15.1356546 3.86495905,14.7379447 L3.86495905,14.7379447 L1.27285324,14.4435608 C1.09457303,13.6575983 1,12.8398432 1,11.9999539 C1,11.2315981 1.07907915,10.4816538 1.22898746,9.75776743 L1.22898746,9.75776743 L3.81173657,9.41871294 C3.9546022,8.96667382 4.13539766,8.53153712 4.34778453,8.11501321 L4.34778453,8.11501321 L2.73762845,6.06398506 C3.56494121,4.77577922 4.65393955,3.67199085 5.92916627,2.82636681 L5.92916627,2.82636681 L8.05082157,4.38058455 C8.46281789,4.1661854 8.89393004,3.98408195 9.34144155,3.83789615 L9.34144155,3.83789615 L9.59226129,1.26500579 C10.3672571,1.0918566 11.1728382,1 11.9999497,1 Z M12,7.41666667 C9.4686949,7.41666667 7.41666667,9.4686949 7.41666667,12 C7.41666667,14.5313051 9.4686949,16.5833333 12,16.5833333 C14.5313051,16.5833333 16.5833333,14.5313051 16.5833333,12 C16.5833333,9.4686949 14.5313051,7.41666667 12,7.41666667 Z" id="path-1"></path>
    </defs>
    <g id="MONITOR" stroke="none" stroke-width="1" fill="none" fill-rule="evenodd">
        <g id="ALERTAS-" transform="translate(-1088.000000, -80.000000)">
            <g id="ToolTip-/-ðŸ³ï¸-Blanco-/-Top-Right" transform="translate(748.000000, 56.000000)">
                <g id="Navigation/Settings" transform="translate(340.000000, 24.000000)">
                    <polygon id="Bounding-Box" points="0 0 24 0 24 24 0 24"></polygon>
                    <mask id="mask-2" fill="white">
                        <use xlink:href="#path-1"></use>
                    </mask>
                    <use id="Mask" fill="#FFFFFF" xlink:href="#path-1"></use>
                    <g id="ðŸŽ¨-Color-Fill" mask="url(#mask-2)" fill="#1973B8">
                        <rect id="Rectangle" x="0" y="0" width="24" height="24"></rect>
                    </g>
                </g>
            </g>
        </g>
    </g>
</svg>