<?xml version="1.0" encoding="UTF-8"?>
<svg width="53px" height="53px" viewBox="0 0 53 53" version="1.1" xmlns="http://www.w3.org/2000/svg" xmlns:xlink="http://www.w3.org/1999/xlink">
    <!-- Generator: sketchtool 63.1 (101010) - https://sketch.com -->
    <title>E64C2D71-1CF0-4A7A-9988-3FB4C6A86F68</title>
    <desc>Created with sketchtool.</desc>
    <defs>
        <linearGradient x1="26.5229309%" y1="5.84420898%" x2="73.477826%" y2="94.1565274%" id="linearGradient-1">
            <stop stop-color="#1C2645" stop-opacity="0.5" offset="0%"></stop>
            <stop stop-color="#1C2645" stop-opacity="0" offset="100%"></stop>
        </linearGradient>
        <linearGradient x1="100.000237%" y1="49.9993243%" x2="0.00117883837%" y2="49.9993243%" id="linearGradient-2">
            <stop stop-color="#043263" stop-opacity="0.4" offset="0%"></stop>
            <stop stop-color="#043263" stop-opacity="0.1" offset="100%"></stop>
        </linearGradient>
        <linearGradient x1="24.4163832%" y1="28.1106261%" x2="61.180867%" y2="53.2021078%" id="linearGradient-3">
            <stop stop-color="#FFFFFF" stop-opacity="0.6" offset="0%"></stop>
            <stop stop-color="#FFFFFF" stop-opacity="0.2" offset="100%"></stop>
        </linearGradient>
    </defs>
    <g id="HOME/DASHBOARD" stroke="none" stroke-width="1" fill="none" fill-rule="evenodd">
        <g id="DASHBOARD" transform="translate(-756.000000, -204.000000)">
            <g id="DESCUENTOS" transform="translate(736.000000, 184.000000)">
                <g id="Objects/Compass" transform="translate(44.146223, 44.146223) rotate(-0.300000) translate(-44.146223, -44.146223) translate(16.146223, 16.146223)">
                    <g id="Refund">
                        <g id="Cuadrados_Blancos">
                            <rect id="Rectangle" x="0" y="0" width="56" height="56"></rect>
                        </g>
                        <g id="Capa_17" transform="translate(4.666667, 4.666667)" fill-rule="nonzero">
                            <g id="Group">
                                <circle id="Oval" fill="url(#linearGradient-1)" cx="28.5198667" cy="28.5198667" r="22.8134667"></circle>
                                <g>
                                    <circle id="Oval" fill="#D4EDFC" cx="22.8162667" cy="22.8134667" r="22.8134667"></circle>
                                    <circle id="Oval" fill="#1464A5" cx="22.8162667" cy="22.8134667" r="19.3909333"></circle>
                                    <path d="M31.9218667,5.6896 L13.7116,39.9373333 C23.1690667,44.9661333 34.9113333,41.3756 39.9401333,31.9181333 C44.9689333,22.4606667 41.3784,10.7184 31.9218667,5.6896 L31.9218667,5.6896 Z" id="Path" fill="url(#linearGradient-2)"></path>
                                    <path d="M22.8162667,10.4337333 C19.0521333,10.4337333 15.9926667,13.5361333 15.9926667,17.3506667 L15.9926667,21.9865333 C15.9926667,22.0154667 16.0038667,22.0434667 16.0234667,22.064 L17.7342667,23.8886667 C17.7772,23.9344 17.8490667,23.9372 17.8957333,23.8942667 C17.8976,23.8924 17.8994667,23.8905333 17.9013333,23.8886667 L19.6121333,22.064 C19.6317333,22.0425333 19.6429333,22.0154667 19.6429333,21.9865333 L19.6429333,17.3506667 C19.6429333,15.5521333 21.0644,14.0886667 22.8116,14.0886667 C24.5588,14.0886667 25.9802667,15.5521333 25.9802667,17.3506667 L25.9802667,33.5290667 C25.9802667,33.5916 26.0316,33.6429333 26.0950667,33.6429333 C26.1258667,33.6429333 26.1557333,33.6298667 26.1772,33.6084 L27.7246667,32.0002667 C27.7685333,31.9545333 27.8404,31.9536 27.8861333,31.9974667 C27.8870667,31.9984 27.888,31.9993333 27.8889333,32.0002667 L29.4392,33.6065333 C29.4830667,33.6522667 29.5549333,33.6532 29.6006667,33.6093333 C29.6230667,33.5878667 29.6352053,33.5589333 29.6352053,33.5272 L29.6352053,17.3506667 C29.6398667,13.5361333 26.5813333,10.4337333 22.8162667,10.4337333 Z" id="Path" fill="#D4EDFC"></path>
                                    <path d="M21.8484,29.7966667 C21.8484,32.0012 20.0610667,33.7885333 17.8565333,33.7885333 C15.652,33.7885333 13.8646667,32.0012 13.8646667,29.7966667 C13.8646667,27.5921333 15.652,25.8047996 17.8565333,25.8047996 L17.8565333,25.8047996 C20.0610667,25.8038667 21.8484,27.5912 21.8484,29.7966667 L21.8484,29.7966667" id="Path" fill="#F8CD50"></path>
                                    <path d="M17.92,31.7184 C17.1714667,31.7184 16.6656,31.262 16.5022667,30.4229333 L15.9012,30.4229333 L15.9012,29.9768 L16.45,29.9768 C16.45,29.9142667 16.45,29.8517333 16.45,29.7901333 L16.45,29.6650667 L15.9058667,29.6650667 L15.9058667,29.2245333 L16.5013333,29.2245333 C16.6562667,28.3826667 17.1854667,27.8796 17.9190667,27.8796 C18.5434667,27.8796 18.9709333,28.1568 19.1921333,28.7018667 L19.1921333,28.714 L18.6442667,29.0238667 L18.6386667,29.0052 C18.5108,28.6197333 18.2877333,28.4470667 17.9144,28.4470667 C17.5018667,28.4470667 17.2302667,28.7149333 17.1257333,29.2226667 L18.0450667,29.2226667 L18.0450667,29.6632 L17.08,29.6632 L17.08,29.7770667 C17.08,29.8442667 17.08,29.9124 17.08,29.9768 L18.0469333,29.9768 L18.0469333,30.4229333 L17.1341333,30.4229333 C17.2414667,30.9204 17.4990667,31.1621333 17.9218667,31.1621333 C18.3073333,31.1621333 18.5285333,30.9866667 18.6648,30.5732 L18.6704,30.5545333 L19.2052,30.8774667 L19.2052,30.8896 C18.9914667,31.4085333 18.4790667,31.738 17.92,31.7184 Z" id="Path" fill="#FBF3DC"></path>
                                    <path d="M17.8528,25.8038626 C15.6482667,25.8104 13.8656,27.6024 13.8711868,29.8069333 C13.8749333,31.2872 14.6990667,32.6442667 16.0104,33.3321333 L19.7372,26.2733333 C19.1566667,25.9644 18.5098667,25.8029333 17.8528,25.8038626 Z" id="Path" fill="url(#linearGradient-3)"></path>
                                </g>
                            </g>
                        </g>
                    </g>
                </g>
            </g>
        </g>
    </g>
</svg>