<?xml version="1.0" encoding="UTF-8"?>
<svg width="65px" height="90px" viewBox="0 0 65 90" version="1.1" xmlns="http://www.w3.org/2000/svg" xmlns:xlink="http://www.w3.org/1999/xlink">
    <!-- Generator: Sketch 63.1 (92452) - https://sketch.com -->
    <title>Group 3</title>
    <desc>Created with Sketch.</desc>
    <defs>
        <linearGradient x1="24.1461423%" y1="-1.75886305%" x2="68.1531735%" y2="107.186873%" id="linearGradient-1">
            <stop stop-color="#192647" offset="0%"></stop>
            <stop stop-color="#192647" stop-opacity="0.5" offset="0%"></stop>
            <stop stop-color="#192647" stop-opacity="0" offset="100%"></stop>
        </linearGradient>
        <linearGradient x1="100%" y1="50%" x2="0%" y2="50%" id="linearGradient-2">
            <stop stop-color="#043263" stop-opacity="0.1" offset="0%"></stop>
            <stop stop-color="#043263" stop-opacity="0" offset="100%"></stop>
        </linearGradient>
        <linearGradient x1="37.9404377%" y1="8.82894646%" x2="70.1015759%" y2="81.6598624%" id="linearGradient-3">
            <stop stop-color="#EAF9FA" offset="0%"></stop>
            <stop stop-color="#EAF9FA" stop-opacity="0.2" offset="100%"></stop>
            <stop stop-color="#EAF9FA" stop-opacity="0.5" offset="100%"></stop>
        </linearGradient>
    </defs>
    <g id="REPROCESADO-MASIVO" stroke="none" stroke-width="1" fill="none" fill-rule="evenodd">
        <g id="Reprocesado_masivo---Reprocesado-confirmar" transform="translate(-692.000000, -280.000000)">
            <g id="MODAL" transform="translate(444.000000, 174.000000)">
                <g id="Illustration" transform="translate(220.000000, 92.000000)">
                    <g id="Group-3">
                        <g id="Products-and-Services/Payroll">
                            <g id="Payroll" transform="translate(28.560000, 19.973333)">
                                <path d="M45.92,11.2 L9.94933333,11.2 C9.61333333,11.2 9.33333333,11.48 9.33333333,11.816 L9.33333333,82.6933333 C9.33333333,83.0106667 9.576,83.2533333 9.89333333,83.2533333 L11.8346667,83.2533333 L62.72,83.44 L63.6533333,83.44 C63.9706667,83.44 64.2133333,83.1973333 64.2133333,82.88 L64.2133333,29.4933333 L45.92,11.2 Z" id="Path" fill="url(#linearGradient-1)" fill-rule="nonzero"></path>
                                <path d="M54.88,18.2933333 L36.5866667,0 L0.616,0 C0.28,0 0,0.28 0,0.616 L0,71.4933333 C0,71.8106667 0.242666667,72.0533333 0.56,72.0533333 L54.32,72.0533333 C54.6373333,72.0533333 54.88,71.8106667 54.88,71.4933333 L54.88,18.2933333 Z" id="Path" fill="#D4EDFC" fill-rule="nonzero"></path>
                                <path d="M39.76,3.36 L2.50133333,72.0533333 L53.3866667,72.24 L54.32,72.24 C54.6373333,72.24 54.88,71.9973333 54.88,71.68 L54.88,18.48 L39.76,3.36 Z" id="Path" fill="url(#linearGradient-2)" fill-rule="nonzero"></path>
                                <g id="Group" opacity="0.35" transform="translate(6.346667, 7.653333)" fill="#49A5E6" fill-rule="nonzero">
                                    <path d="M19.4133333,1.86666667 L0.933333333,1.86666667 C0.410666667,1.86666667 0,1.456 0,0.933333333 C0,0.410666667 0.410666667,0 0.933333333,0 L19.4133333,0 C19.936,0 20.3466667,0.410666667 20.3466667,0.933333333 C20.3466667,1.456 19.936,1.86666667 19.4133333,1.86666667 Z" id="Path"></path>
                                </g>
                                <g id="Group" opacity="0.35" transform="translate(6.346667, 12.880000)" fill="#49A5E6" fill-rule="nonzero">
                                    <path d="M19.4133333,1.86666667 L0.933333333,1.86666667 C0.410666667,1.86666667 0,1.456 0,0.933333333 C0,0.410666667 0.410666667,0 0.933333333,0 L19.4133333,0 C19.936,0 20.3466667,0.410666667 20.3466667,0.933333333 C20.3466667,1.456 19.936,1.86666667 19.4133333,1.86666667 Z" id="Path"></path>
                                </g>
                                <g id="Group" opacity="0.35" transform="translate(32.106667, 61.413333)" fill="#49A5E6" fill-rule="nonzero">
                                    <path d="M13.6266667,1.86666667 L0.933333333,1.86666667 C0.410666667,1.86666667 0,1.456 0,0.933333333 C0,0.410666667 0.410666667,0 0.933333333,0 L13.6266667,0 C14.1493333,0 14.56,0.410666667 14.56,0.933333333 C14.56,1.456 14.1493333,1.86666667 13.6266667,1.86666667 Z" id="Path"></path>
                                </g>
                                <path d="M37.2773333,18.2933333 L54.88,18.2933333 L36.5866667,0 L36.5866667,17.6026667 C36.5866667,17.9946667 36.8853333,18.2933333 37.2773333,18.2933333 Z" id="Path" fill="#1464A5" fill-rule="nonzero"></path>
                                <g id="Group" opacity="0.35" transform="translate(6.346667, 26.880000)" fill="#49A5E6" fill-rule="nonzero">
                                    <g transform="translate(5.413333, 5.413333)" id="Path">
                                        <path d="M15.68,1.86666667 L0.933333333,1.86666667 C0.410666667,1.86666667 0,1.456 0,0.933333333 C0,0.410666667 0.410666667,0 0.933333333,0 L15.68,0 C16.2026667,0 16.6133333,0.410666667 16.6133333,0.933333333 C16.6133333,1.456 16.2026667,1.86666667 15.68,1.86666667 Z"></path>
                                    </g>
                                    <g transform="translate(5.413333, 10.640000)" id="Path">
                                        <path d="M15.68,1.86666667 L0.933333333,1.86666667 C0.410666667,1.86666667 0,1.456 0,0.933333333 C0,0.410666667 0.410666667,0 0.933333333,0 L15.68,0 C16.2026667,0 16.6133333,0.410666667 16.6133333,0.933333333 C16.6133333,1.456 16.2026667,1.86666667 15.68,1.86666667 Z"></path>
                                    </g>
                                    <g transform="translate(5.413333, 15.866667)" id="Path">
                                        <path d="M15.68,1.86666667 L0.933333333,1.86666667 C0.410666667,1.86666667 0,1.456 0,0.933333333 C0,0.410666667 0.410666667,0 0.933333333,0 L15.68,0 C16.2026667,0 16.6133333,0.410666667 16.6133333,0.933333333 C16.6133333,1.456 16.2026667,1.86666667 15.68,1.86666667 Z"></path>
                                    </g>
                                    <g transform="translate(5.413333, 21.093333)" id="Path">
                                        <path d="M15.68,1.86666667 L0.933333333,1.86666667 C0.410666667,1.86666667 0,1.456 0,0.933333333 C0,0.410666667 0.410666667,0 0.933333333,0 L15.68,0 C16.2026667,0 16.6133333,0.410666667 16.6133333,0.933333333 C16.6133333,1.456 16.2026667,1.86666667 15.68,1.86666667 Z"></path>
                                    </g>
                                    <path d="M39.3866667,0 L0.933333333,0 C0.410666667,0 0,0.410666667 0,0.933333333 L0,27.0666667 C0,27.5893333 0.410666667,28 0.933333333,28 L39.3866667,28 C39.9093333,28 40.32,27.5893333 40.32,27.0666667 L40.32,0.933333333 C40.32,0.410666667 39.9093333,0 39.3866667,0 Z M1.86666667,1.86666667 L25.5733333,1.86666667 L25.5733333,26.1333333 L1.86666667,26.1333333 L1.86666667,1.86666667 Z M38.4533333,26.1333333 L27.44,26.1333333 L27.44,1.86666667 L38.4533333,1.86666667 L38.4533333,26.1333333 Z" id="Shape"></path>
                                </g>
                            </g>
                        </g>
                        <g id="Group" transform="translate(60.000000, 14.000000)">
                            <path d="M30,14.996287 C30.0014129,21.0634498 26.3477298,26.5339865 20.742808,28.8567685 C15.1378861,31.1795506 8.68564007,29.8970956 4.39500838,25.6074632 C0.104376692,21.3178308 -1.17958139,14.8658836 1.14189477,9.26042061 C3.46337094,3.65495764 8.93305616,0 15.000219,0 L15.000219,0 C23.2830048,0 29.9980702,6.71350121 30,14.996287" id="Path" fill="#2DCCCD" fill-rule="nonzero"></path>
                            <path d="M22.5,1.8590344 C17.7503191,-0.712912572 11.9477808,-0.609877366 7.29774176,2.12897968 C2.64770269,4.86783672 -0.135817029,9.82196017 0.00510814536,15.1084484 C0.146033319,20.3949367 3.18976412,25.202042 7.97947722,27.7027394 C8.07470533,27.7610696 8.18756827,27.8091062 8.28632334,27.8571429" id="Path" fill="url(#linearGradient-3)" fill-rule="nonzero" opacity="0.5"></path>
                            <path d="M23.5714286,18.4090909 L18.8780619,22.5 L18.8780619,19.7727273 L10.8322904,19.7727273 L13.5142142,17.0454545 L18.8780619,17.0454545 L18.8780619,14.3181818 L23.5714286,18.4090909 Z M7.5,11.5909091 L12.1933667,7.5 L12.1933667,10.2272727 L20.2391382,10.2272727 L17.5572144,12.9545455 L12.1933667,12.9545455 L12.1933667,15.6818182 L7.5,11.5909091 Z" id="Shape" fill="#FFFFFF"></path>
                        </g>
                    </g>
                </g>
            </g>
        </g>
    </g>
</svg>