<?xml version="1.0" encoding="UTF-8"?>
<svg width="22px" height="22px" viewBox="0 0 22 22" version="1.1" xmlns="http://www.w3.org/2000/svg" xmlns:xlink="http://www.w3.org/1999/xlink">
    <!-- Generator: Sketch 63.1 (92452) - https://sketch.com -->
    <title>Tools and Objects/Search Copy 2</title>
    <desc>Created with Sketch.</desc>
    <g id="DEV_ASSETS" stroke="none" stroke-width="1" fill="none" fill-rule="evenodd">
        <g id="ICONOS" transform="translate(-270.000000, -406.000000)" fill="#BDBDBD">
            <g id="Tools-and-Objects/Search" transform="translate(269.000000, 405.000000)">
                <path d="M14,10 C14,7.7909 12.2091,6 10,6 L10,4 C13.3137,4 16,6.6863 16,10 L14,10 Z M17.2849,15.2849 C18.3634,13.8009 19,11.9749 19,10 C19,5.0294 14.9706,1 10,1 C5.0294,1 1,5.0294 1,10 C1,14.9706 5.0294,19 10,19 C11.9749,19 13.8008,18.3634 15.2849,17.2849 L21,23 L23,21 L17.2849,15.2849 Z" id="-🎨-Change-color-here"></path>
            </g>
        </g>
    </g>
</svg>