<?xml version="1.0" encoding="UTF-8"?>
<svg width="15px" height="15px" viewBox="0 0 15 15" version="1.1" xmlns="http://www.w3.org/2000/svg" xmlns:xlink="http://www.w3.org/1999/xlink">
    <!-- Generator: sketchtool 61.2 (101010) - https://sketch.com -->
    <title>04AB2016-429C-425E-87B7-187E5C53100C@3x</title>
    <desc>Created with sketchtool.</desc>
    <g id="MONITOR" stroke="none" stroke-width="1" fill="none" fill-rule="evenodd">
        <g id="HOME" transform="translate(-473.000000, -452.000000)" fill="#1973B8">
            <g id="TABLA-COMPLETA" transform="translate(148.000000, 431.000000)">
                <g id="Group-12">
                    <g id="ðŸ‘‰Comp/-Filtro-ðŸ‘‰ðŸ¼Comp-/-Filtro">
                        <g id="BUSCADOR" transform="translate(102.000000, 16.000000)">
                            <g id="buscar">
                                <path d="M228.909673,5 C232.173495,5 234.819345,7.64585051 234.819345,10.9096725 C234.819345,12.1616381 234.430034,13.3226751 233.765867,14.2783272 L238,18.3337564 L236.575913,19.6973047 L232.387658,15.6880328 C231.411836,16.399516 230.209782,16.8193451 228.909673,16.8193451 C225.645851,16.8193451 223,14.1734945 223,10.9096725 C223,7.64585051 225.645851,5 228.909673,5 Z M228.909673,6.96989084 L228.909673,8.2831514 C230.36026,8.2831514 231.536194,9.45908497 231.536194,10.9096725 L232.849454,10.9096725 C232.849454,8.73379119 231.085554,6.96989084 228.909673,6.96989084 Z" id="icon-search"></path>
                            </g>
                        </g>
                    </g>
                </g>
            </g>
        </g>
    </g>
</svg>