<?xml version="1.0" encoding="UTF-8"?>
<svg width="24px" height="24px" viewBox="0 0 24 24" version="1.1" xmlns="http://www.w3.org/2000/svg" xmlns:xlink="http://www.w3.org/1999/xlink">
    <!-- Generator: sketchtool 61.2 (101010) - https://sketch.com -->
    <title>537746B6-2AD2-4824-8C45-2DBFC5666ADE</title>
    <desc>Created with sketchtool.</desc>
    <g id="Asset-Artboard-Page" stroke="none" stroke-width="1" fill="none" fill-rule="evenodd">
        <g id="Tools-and-Objects/Simulator" fill="#1973B8">
            <path d="M7.15998768,16.4299278 C8.61796876,16.4299278 9.7999824,17.6119415 9.7999824,19.0699226 C9.7999824,20.5279036 8.61796876,21.7099173 7.15998768,21.7099173 C5.7020066,21.7099173 4.51999296,20.5279036 4.51999296,19.0699226 C4.51999296,17.6119415 5.7020066,16.4299278 7.15998768,16.4299278 Z M22.999912,17.3099261 L20.3600053,19.9499208 L11.4714951,19.9499208 C11.5293989,19.6655054 11.5599349,19.371234 11.5599349,19.0699226 C11.5599349,18.5337019 11.4629555,18.0199158 11.2863421,17.5444135 L11.1914796,17.3099261 L22.999912,17.3099261 Z M1,17.3099261 L3.12845174,17.3099261 C2.89208422,17.849277 2.75999648,18.4443318 2.75999648,19.0699226 C2.75999648,19.2707968 2.77360712,19.4685422 2.79983759,19.6623243 L2.8485243,19.9499208 L1,19.9499208 L1,17.3099261 L3.12845174,17.3099261 L1,17.3099261 Z M14.1999736,9.38994192 C15.6579547,9.38994192 16.8399683,10.5719556 16.8399683,12.0299366 C16.8399683,13.4879177 15.6579547,14.6699314 14.1999736,14.6699314 C12.7419925,14.6699314 11.5599789,13.4879177 11.5599789,12.0299366 C11.5599789,10.5719556 12.7419925,9.38994192 14.1999736,9.38994192 Z M23,10.2699402 L20.3599173,12.9099349 L18.511481,12.9099349 C18.5693849,12.6255194 18.5999208,12.331248 18.5999208,12.0299366 C18.5999208,11.493716 18.5029414,10.9799299 18.3263281,10.5044276 L18.2314655,10.2699402 L23,10.2699402 Z M1,10.2699402 L10.1685257,10.2699402 C9.93207014,10.8092911 9.7999824,11.4043459 9.7999824,12.0299366 C9.7999824,12.2308109 9.81359304,12.4285563 9.83982351,12.6223384 L9.88851022,12.9099349 L1,12.9099349 L1,10.2699402 L10.1685257,10.2699402 L1,10.2699402 Z M7.15999648,2.35 C7.87663771,2.35 8.52621147,2.63572076 9.00182511,3.09925291 L9.12740855,3.23017424 L9.12740855,3.23017424 L9.2275882,3.34892185 L9.32076697,3.47351657 L9.32076697,3.47351657 L9.40900798,3.60734149 L9.40900798,3.60734149 L9.47113586,3.71382127 L9.57108166,3.91469187 L9.57108166,3.91469187 L9.64001852,4.08474053 L9.64001852,4.08474053 L9.70618339,4.29277211 L9.75601329,4.51090168 L9.75601329,4.51090168 L9.78705523,4.72960324 L9.78705523,4.72960324 L9.7991332,4.92419285 L9.7991332,5.05311259 L9.79115822,5.2001603 L9.79115822,5.2001603 L9.76408727,5.42286585 L9.76408727,5.42286585 L9.73390333,5.57607355 L9.73390333,5.57607355 L9.69566741,5.72469425 L9.69566741,5.72469425 L9.6492475,5.86981696 L9.58313045,6.0380942 C9.17756546,6.97456729 8.24550853,7.62998944 7.15999648,7.62998944 C6.07440132,7.62998944 5.14241827,6.97456729 4.73686174,6.0380942 L4.67083346,5.86999296 L4.62432555,5.72469425 L4.57175666,5.50955668 L4.57175666,5.50955668 L4.54197972,5.32721005 L4.54197972,5.32721005 L4.52880174,5.2001603 L4.52880174,5.2001603 L4.52085976,5.05311259 L4.52085976,5.05311259 L4.52085976,4.92419285 L4.53592973,4.70281829 L4.53592973,4.70281829 L4.5486017,4.6023555 L4.5975296,4.35463599 L4.63996752,4.20278129 L4.63996752,4.20278129 L4.67993044,4.08474053 L4.72498635,3.96981276 L4.72498635,3.96981276 L4.81013718,3.78730113 L4.88693903,3.6475464 L4.88693903,3.6475464 L4.91336097,3.60364549 C4.96809686,3.51511767 5.02791719,3.43007073 5.09237869,3.34892185 L5.19249642,3.23017424 C5.67623145,2.69003132 6.37820604,2.35 7.15999648,2.35 Z M1,3.22995424 L3.12845174,3.22995424 C2.89208422,3.76930516 2.75999648,4.36435997 2.75999648,4.98995072 C2.75999648,5.19082499 2.77360712,5.38857037 2.79983759,5.5823525 L2.8485243,5.86994896 L1,5.86994896 L1,3.22995424 L3.12845174,3.22995424 L1,3.22995424 Z M22.999912,3.22995424 L20.3600053,5.86994896 L11.4714951,5.86994896 C11.5293989,5.58553353 11.5599349,5.29126212 11.5599349,4.98995072 C11.5599349,4.45373008 11.4629555,3.939944 11.2863421,3.4644417 L11.1914796,3.22995424 L22.999912,3.22995424 Z" id="-🎨-Change-color-here"></path>
        </g>
    </g>
</svg>