<?xml version="1.0" encoding="UTF-8"?>
<svg width="24px" height="24px" viewBox="0 0 24 24" version="1.1" xmlns="http://www.w3.org/2000/svg" xmlns:xlink="http://www.w3.org/1999/xlink">
    <!-- Generator: sketchtool 61.2 (101010) - https://sketch.com -->
    <title>8618E6F3-D295-4C4A-BAE1-42F2D91017C5</title>
    <desc>Created with sketchtool.</desc>
    <g id="Asset-Artboard-Page" stroke="none" stroke-width="1" fill="none" fill-rule="evenodd">
        <g id="Tools-and-Objects/Tiled-View" fill="#FFFFFF">
            <path d="M6.44444444,17.5555556 L6.44444444,22 L2,22 L2,17.5555556 L6.44444444,17.5555556 Z M14.2222222,17.5555556 L14.2222222,22 L9.77777778,22 L9.77777778,17.5555556 L14.2222222,17.5555556 Z M22,17.5555556 L22,22 L17.5555556,22 L17.5555556,17.5555556 L22,17.5555556 Z M14.2222222,9.77777778 L14.2222222,14.2222222 L9.77777778,14.2222222 L9.77777778,9.77777778 L14.2222222,9.77777778 Z M22,9.77777778 L22,14.2222222 L17.5555556,14.2222222 L17.5555556,9.77777778 L22,9.77777778 Z M6.44444444,9.77777778 L6.44444444,14.2222222 L2,14.2222222 L2,9.77777778 L6.44444444,9.77777778 Z M6.44444444,2 L6.44444444,6.44444444 L2,6.44444444 L2,2 L6.44444444,2 Z M14.2222222,2 L14.2222222,6.44444444 L9.77777778,6.44444444 L9.77777778,2 L14.2222222,2 Z M22,2 L22,6.44444444 L17.5555556,6.44444444 L17.5555556,2 L22,2 Z" id="-🎨-Change-color-here"></path>
        </g>
    </g>
</svg>